<?xml version="1.0" encoding="UTF-8"?>
<svg width="190px" height="32px" viewBox="0 0 190 32" version="1.1" xmlns="http://www.w3.org/2000/svg" xmlns:xlink="http://www.w3.org/1999/xlink">
    <title>Logo</title>
    <g id="Website" stroke="none" stroke-width="1" fill="none" fill-rule="evenodd">
        <g id="Interactions" transform="translate(-180.000000, -240.000000)" fill="#000000" fill-rule="nonzero">
            <g id="Header" transform="translate(0.000000, 120.000000)">
                <g transform="translate(0.000000, 80.000000)" id="Logo">
                    <g transform="translate(180.000000, 40.000000)" id="assets/logo">
                        <path d="M14,0 L28,8 L28,24 L14,32 L0,24 L0,8 L14,0 Z M14,3.1238662 L2.70344828,9.57903863 L2.70344828,22.4209614 L14,28.8761338 L25.2965517,22.4209614 L25.2965517,9.57903863 L14,3.1238662 Z" id="Polygon-Copy-2"></path>
                        <path d="M43.4503906,24.1945311 L43.4503906,11.4164066 L45.8003905,11.4164066 L45.8003905,12.7107425 C46.1002617,12.2333964 46.481215,11.8600929 46.9432615,11.5908207 C47.4053081,11.3215485 47.9576137,11.1869145 48.600195,11.1869145 C49.2366565,11.1869145 49.793552,11.3184887 50.2708981,11.581641 C50.7482442,11.8447934 51.1429668,12.2012676 51.4550777,12.6510746 C51.7671887,13.1008815 51.9982085,13.633298 52.1481441,14.2483401 C52.2980798,14.8633822 52.3730465,15.5166634 52.3730465,16.2082033 C52.3730465,16.9119829 52.2980798,17.566794 52.1481441,18.1726564 C51.9982085,18.7785187 51.7671887,19.3078754 51.4550777,19.7607422 C51.1429668,20.2136091 50.7482442,20.5716133 50.2708981,20.8347656 C49.793552,21.097918 49.2366565,21.2294922 48.600195,21.2294922 C47.9637336,21.2294922 47.4129578,21.0948581 46.9478514,20.8255859 C46.4827449,20.5563138 46.1002617,20.1830102 45.8003905,19.7056641 L45.8003905,24.1945311 L43.4503906,24.1945311 Z M45.8003905,16.9242189 C45.8003905,17.676957 45.9717429,18.2782205 46.3144529,18.7280274 C46.657163,19.1778344 47.2048788,19.4027344 47.9576169,19.4027344 C48.5695991,19.4027344 49.0515279,19.2359718 49.4034177,18.9024415 C49.7553074,18.5689112 49.9312497,18.120641 49.9312497,17.5576173 L49.9312497,14.8496096 C49.9312497,14.286586 49.7568374,13.8398457 49.4080075,13.5093753 C49.0591777,13.1789049 48.575719,13.0136722 47.9576169,13.0136722 C47.2048788,13.0136722 46.657163,13.2385723 46.3144529,13.6883792 C45.9717429,14.1381861 45.8003905,14.7394496 45.8003905,15.4921877 L45.8003905,16.9242189 Z M54.7964839,21 L54.7964839,11.4164066 L60.1482415,11.4164066 L60.1482415,13.2523441 L57.1464838,13.2523441 L57.1464838,21 L54.7964839,21 Z M62.0300773,10.3056645 L62.0300773,8.2126958 L64.4535147,8.2126958 L64.4535147,10.3056645 L62.0300773,10.3056645 Z M62.0667961,21 L62.0667961,11.4164066 L64.416796,11.4164066 L64.416796,21 L62.0667961,21 Z M66.2710928,11.4164066 L68.786327,11.4164066 L70.8792957,18.3654298 L70.9527332,18.3654298 L73.0916003,11.4164066 L75.5792955,11.4164066 L72.2103503,21 L69.6400379,21 L66.2710928,11.4164066 Z M76.8460923,18.2736329 C76.8460923,17.4964155 77.1153605,16.8263051 77.6539048,16.2632814 C78.1924491,15.7002578 78.9696549,15.3728522 79.9855453,15.2810549 L82.6384749,15.0607424 L82.6384749,14.4365237 C82.6384749,13.9346983 82.5038408,13.5721043 82.2345687,13.3487308 C81.9652965,13.1253573 81.5981127,13.0136722 81.1330062,13.0136722 C80.6556601,13.0136722 80.2670572,13.1284171 79.967186,13.3579105 C79.6673147,13.5874038 79.5173813,13.922459 79.5173813,14.3630862 L77.1673814,14.3630862 C77.179621,13.8367815 77.292836,13.3762718 77.5070298,12.9815433 C77.7212236,12.5868148 78.005791,12.2578793 78.3607407,11.9947269 C78.7156904,11.7315746 79.1379518,11.5311534 79.6275375,11.3934574 C80.1171233,11.2557614 80.6495398,11.1869145 81.2248031,11.1869145 C82.3753296,11.1869145 83.2841096,11.4653622 83.9511702,12.022266 C84.6182308,12.5791698 84.9517561,13.3961538 84.9517561,14.4732425 L84.9517561,19.1732423 L86.567381,19.1732423 L86.567381,21 L82.8679671,21 L82.8496077,19.5128907 L82.7669905,19.5128907 C82.4915985,20.0391954 82.1259447,20.456867 81.6700179,20.765918 C81.2140912,21.074969 80.6158876,21.2294922 79.8753891,21.2294922 C79.4347619,21.2294922 79.0323896,21.1560554 78.6682602,21.0091797 C78.3041308,20.862304 77.9843749,20.657293 77.7089829,20.3941406 C77.4335909,20.1309883 77.2209303,19.8219419 77.0709947,19.4669922 C76.921059,19.1120426 76.8460923,18.7142601 76.8460923,18.2736329 Z M79.2878891,18.5398438 C79.2878891,18.8274755 79.4194633,19.043196 79.6826157,19.1870118 C79.945768,19.3308276 80.285413,19.4027344 80.7015609,19.4027344 C81.3013035,19.4027344 81.7740526,19.1900738 82.1198226,18.7647462 C82.4655925,18.3394186 82.6384749,17.8238313 82.6384749,17.2179689 L82.6384749,16.8416017 L79.820311,17.0894533 C79.4714811,17.1261722 79.2940089,17.334243 79.2878891,17.713672 L79.2878891,18.5398438 Z M87.2925763,13.2339847 L87.2925763,11.4164066 L89.1927715,11.4164066 L89.1927715,8.2126958 L91.5427714,8.2126958 L91.5427714,11.4164066 L93.9294901,11.4164066 L93.9294901,13.2339847 L91.5427714,13.2339847 L91.5427714,19.1732423 L93.9294901,19.1732423 L93.9294901,21 L89.1927715,21 L89.1927715,13.2339847 L87.2925763,13.2339847 Z M95.6736306,16.1898439 C95.6736306,15.4371058 95.777666,14.753226 95.98574,14.1381839 C96.1938139,13.5231418 96.4860311,12.996845 96.8624001,12.5592777 C97.2387692,12.1217104 97.6931591,11.7835953 98.2255837,11.5449223 C98.7580082,11.3062492 99.3485621,11.1869145 99.9972633,11.1869145 C100.645964,11.1869145 101.234988,11.3031893 101.764353,11.5357426 C102.293718,11.7682958 102.746578,12.0880517 103.122947,12.4950199 C103.499316,12.901988 103.786943,13.3869767 103.985837,13.9500003 C104.184732,14.5130239 104.284177,15.1219371 104.284177,15.776758 L104.284177,16.9609377 L98.1246071,16.9609377 L98.1246071,17.5943361 C98.1246071,18.1695993 98.3127888,18.6148097 98.6891579,18.9299806 C99.0655269,19.2451514 99.5107373,19.4027344 100.024802,19.4027344 C100.538867,19.4027344 100.958069,19.2681004 101.282419,18.9988282 C101.60677,18.729556 101.799542,18.3501328 101.86074,17.860547 L104.21074,17.860547 C104.057744,18.925396 103.609474,19.7530895 102.865915,20.3436524 C102.122357,20.9342152 101.166149,21.2294922 99.9972633,21.2294922 C99.317963,21.2294922 98.7105798,21.1070976 98.1750954,20.8623047 C97.639611,20.6175118 97.1867509,20.2748069 96.8165017,19.8341797 C96.4462524,19.3935525 96.1632149,18.8641959 95.9673806,18.2460939 C95.7715463,17.6279918 95.6736306,16.9425821 95.6736306,16.1898439 Z M98.1246071,15.1341799 L101.879099,15.1341799 L101.879099,14.7945315 C101.879099,14.2682268 101.701627,13.8398457 101.346677,13.5093753 C100.991728,13.1789049 100.541927,13.0136722 99.9972633,13.0136722 C99.4587189,13.0136722 99.0119786,13.1789049 98.657029,13.5093753 C98.3020793,13.8398457 98.1246071,14.2682268 98.1246071,14.7945315 L98.1246071,15.1341799 Z M106.634177,21 L106.634177,11.4164066 L108.984177,11.4164066 L108.984177,12.8025394 C109.259569,12.2884743 109.609924,11.8906919 110.035251,11.6091801 C110.460579,11.3276683 110.991465,11.1869145 111.627927,11.1869145 C112.319467,11.1869145 112.887072,11.3414376 113.330759,11.6504887 C113.774446,11.9595397 114.103381,12.4016902 114.317575,12.9769535 C114.941797,11.7835882 115.914834,11.1869145 117.236716,11.1869145 C118.215887,11.1869145 118.951785,11.5005506 119.44443,12.1278324 C119.937076,12.7551141 120.183395,13.619526 120.183395,14.721094 L120.183395,21 L117.833395,21 L117.833395,14.8863284 C117.833395,13.6990829 117.383595,13.1054691 116.483981,13.1054691 L116.465622,13.1054691 C115.902598,13.1054691 115.448208,13.3211896 115.102438,13.752637 C114.756668,14.1840845 114.583786,14.7516894 114.583786,15.455469 L114.583786,21 L112.233786,21 L112.233786,14.8863284 C112.233786,13.6990829 111.780926,13.1054691 110.875193,13.1054691 L110.856833,13.1054691 C110.29381,13.1054691 109.840949,13.3211896 109.498239,13.752637 C109.155529,14.1840845 108.984177,14.7516894 108.984177,15.455469 L108.984177,21 L106.634177,21 Z M122.414059,18.2736329 C122.414059,17.4964155 122.683327,16.8263051 123.221872,16.2632814 C123.760416,15.7002578 124.537622,15.3728522 125.553512,15.2810549 L128.206442,15.0607424 L128.206442,14.4365237 C128.206442,13.9346983 128.071808,13.5721043 127.802536,13.3487308 C127.533263,13.1253573 127.16608,13.0136722 126.700973,13.0136722 C126.223627,13.0136722 125.835024,13.1284171 125.535153,13.3579105 C125.235282,13.5874038 125.085348,13.922459 125.085348,14.3630862 L122.735348,14.3630862 C122.747588,13.8367815 122.860803,13.3762718 123.074997,12.9815433 C123.28919,12.5868148 123.573758,12.2578793 123.928708,11.9947269 C124.283657,11.7315746 124.705919,11.5311534 125.195504,11.3934574 C125.68509,11.2557614 126.217507,11.1869145 126.79277,11.1869145 C127.943297,11.1869145 128.852076,11.4653622 129.519137,12.022266 C130.186198,12.5791698 130.519723,13.3961538 130.519723,14.4732425 L130.519723,19.1732423 L132.135348,19.1732423 L132.135348,21 L128.435934,21 L128.417575,19.5128907 L128.334957,19.5128907 C128.059565,20.0391954 127.693912,20.456867 127.237985,20.765918 C126.782058,21.074969 126.183854,21.2294922 125.443356,21.2294922 C125.002729,21.2294922 124.600357,21.1560554 124.236227,21.0091797 C123.872098,20.862304 123.552342,20.657293 123.27695,20.3941406 C123.001558,20.1309883 122.788897,19.8219419 122.638962,19.4669922 C122.489026,19.1120426 122.414059,18.7142601 122.414059,18.2736329 Z M124.855856,18.5398438 C124.855856,18.8274755 124.98743,19.043196 125.250583,19.1870118 C125.513735,19.3308276 125.85338,19.4027344 126.269528,19.4027344 C126.86927,19.4027344 127.34202,19.1900738 127.687789,18.7647462 C128.033559,18.3394186 128.206442,17.8238313 128.206442,17.2179689 L128.206442,16.8416017 L125.388278,17.0894533 C125.039448,17.1261722 124.861976,17.334243 124.855856,17.713672 L124.855856,18.5398438 Z M133.769332,21 L133.769332,11.4164066 L139.12109,11.4164066 L139.12109,13.2523441 L136.119332,13.2523441 L136.119332,21 L133.769332,21 Z M141.039644,21 L141.039644,8.2126958 L143.389644,8.2126958 L143.389644,21 L141.039644,21 Z M143.426363,15.7400393 L146.639254,11.4164066 L149.420699,11.4164066 L145.996675,15.7400393 L149.723628,21 L147.107418,21 L143.426363,15.7400393 Z M151.008785,16.1898439 C151.008785,15.4371058 151.11282,14.753226 151.320894,14.1381839 C151.528968,13.5231418 151.821185,12.996845 152.197554,12.5592777 C152.573923,12.1217104 153.028313,11.7835953 153.560738,11.5449223 C154.093162,11.3062492 154.683716,11.1869145 155.332417,11.1869145 C155.981118,11.1869145 156.570142,11.3031893 157.099507,11.5357426 C157.628872,11.7682958 158.081732,12.0880517 158.458101,12.4950199 C158.83447,12.901988 159.122097,13.3869767 159.320991,13.9500003 C159.519886,14.5130239 159.619331,15.1219371 159.619331,15.776758 L159.619331,16.9609377 L153.459761,16.9609377 L153.459761,17.5943361 C153.459761,18.1695993 153.647943,18.6148097 154.024312,18.9299806 C154.400681,19.2451514 154.845891,19.4027344 155.359956,19.4027344 C155.874021,19.4027344 156.293223,19.2681004 156.617573,18.9988282 C156.941924,18.729556 157.134696,18.3501328 157.195894,17.860547 L159.545894,17.860547 C159.392898,18.925396 158.944628,19.7530895 158.20107,20.3436524 C157.457511,20.9342152 156.501303,21.2294922 155.332417,21.2294922 C154.653117,21.2294922 154.045734,21.1070976 153.510249,20.8623047 C152.974765,20.6175118 152.521905,20.2748069 152.151656,19.8341797 C151.781406,19.3935525 151.498369,18.8641959 151.302535,18.2460939 C151.1067,17.6279918 151.008785,16.9425821 151.008785,16.1898439 Z M153.459761,15.1341799 L157.214253,15.1341799 L157.214253,14.7945315 C157.214253,14.2682268 157.036781,13.8398457 156.681831,13.5093753 C156.326882,13.1789049 155.877081,13.0136722 155.332417,13.0136722 C154.793873,13.0136722 154.347133,13.1789049 153.992183,13.5093753 C153.637233,13.8398457 153.459761,14.2682268 153.459761,14.7945315 L153.459761,15.1341799 Z M161.060542,13.2339847 L161.060542,11.4164066 L162.960737,11.4164066 L162.960737,8.2126958 L165.310737,8.2126958 L165.310737,11.4164066 L167.697456,11.4164066 L167.697456,13.2339847 L165.310737,13.2339847 L165.310737,19.1732423 L167.697456,19.1732423 L167.697456,21 L162.960737,21 L162.960737,13.2339847 L161.060542,13.2339847 Z M169.817964,21 L169.817964,18.2919923 L172.525971,18.2919923 L172.525971,21 L169.817964,21 Z M175.270698,10.3056645 L175.270698,8.2126958 L177.694135,8.2126958 L177.694135,10.3056645 L175.270698,10.3056645 Z M175.307416,21 L175.307416,11.4164066 L177.657416,11.4164066 L177.657416,21 L175.307416,21 Z M180.053315,16.2082033 C180.053315,15.4554652 180.15429,14.7715854 180.356244,14.1565432 C180.558199,13.5415011 180.850416,13.0121445 181.232905,12.5684574 C181.615393,12.1247703 182.085083,11.7835953 182.641986,11.5449223 C183.19889,11.3062492 183.835342,11.1869145 184.551361,11.1869145 C185.267381,11.1869145 185.903833,11.3062492 186.460736,11.5449223 C187.01764,11.7835953 187.487329,12.1247703 187.869818,12.5684574 C188.252307,13.0121445 188.542994,13.5415011 188.741889,14.1565432 C188.940783,14.7715854 189.040228,15.4554652 189.040228,16.2082033 C189.040228,16.9609414 188.940783,17.6432913 188.741889,18.2552735 C188.542994,18.8672558 188.252307,19.3966124 187.869818,19.8433594 C187.487329,20.2901064 187.01764,20.6328113 186.460736,20.8714844 C185.903833,21.1101574 185.267381,21.2294922 184.551361,21.2294922 C183.835342,21.2294922 183.19889,21.1101574 182.641986,20.8714844 C182.085083,20.6328113 181.615393,20.2901064 181.232905,19.8433594 C180.850416,19.3966124 180.558199,18.8672558 180.356244,18.2552735 C180.15429,17.6432913 180.053315,16.9609414 180.053315,16.2082033 Z M182.504291,17.5943361 C182.504291,18.1695993 182.698593,18.6148097 183.087201,18.9299806 C183.47581,19.2451514 183.963858,19.4027344 184.551361,19.4027344 C185.138864,19.4027344 185.626913,19.2497412 186.015521,18.9437501 C186.40413,18.637759 186.598432,18.1879588 186.598432,17.5943361 L186.598432,14.8128909 C186.598432,14.225388 186.40413,13.7786477 186.015521,13.4726566 C185.626913,13.1666655 185.138864,13.0136722 184.551361,13.0136722 C183.963858,13.0136722 183.47581,13.1697253 183.087201,13.4818362 C182.698593,13.7939472 182.504291,14.2376276 182.504291,14.8128909 L182.504291,17.5943361 Z" id="privatemarket.io-copy"></path>
                    </g>
                </g>
            </g>
        </g>
    </g>
</svg>