<?xml version="1.0" encoding="utf-8"?>
<!-- Generator: Adobe Illustrator 21.1.0, SVG Export Plug-In . SVG Version: 6.00 Build 0)  -->
<svg version="1.1" id="Layer_1" xmlns="http://www.w3.org/2000/svg" xmlns:xlink="http://www.w3.org/1999/xlink" x="0px" y="0px"
	 viewBox="0 0 110 100" style="enable-background:new 0 0 110 100;" xml:space="preserve">
<style type="text/css">
	.st0{opacity:0.35;}
	.st1{fill:#8B8B8B;}
	.st2{fill:#545454;}
	.st3{fill:#6E6E6E;}
	.st4{opacity:0.4;}
	.st5{fill:#ABABAB;}
	.st6{fill:#393939;}
	.st7{fill:#1F1F1F;}
	.st8{fill:#6F6F6F;}
	.st9{fill:#5A5A5A;}
	.st10{fill:#9D9D9D;}
	.st11{fill:#3E3E3E;}
	.st12{fill-rule:evenodd;clip-rule:evenodd;fill:#515151;}
	.st13{fill-rule:evenodd;clip-rule:evenodd;fill:#050505;}
</style>
<g class="st0">
	<path class="st9" d="M22.547,58.102l-1.286-6.51L7.167,36.949c-0.843-0.801-1.655-0.505-1.98,0.602
		c-0.225,0.763-5.094,17.121-5.094,17.121s2.044-2.45,4.812-5.765l1.844-8.726L22.547,58.102z"/>
	<path class="st10" d="M18.833,39.305l3.713,18.797l0.36,0.419c0.493,0.554,0.829,0.852,1.371,0.852
		c0.611,0,1.262-0.756,1.203-1.458c-0.061-0.706-1.554-23.389-1.623-24.202c-0.138-1.648-0.321-2.888-1.258-3.321
		c-1.107-0.515-2.081-0.091-2.893,0.823C19.086,31.908,0.093,54.672,0.093,54.672c-0.255,1.118,0.03,2.012,0.668,2.396
		c0.637,0.382,1.541,0.268,2.619-0.962L18.833,39.305z"/>
	<path class="st11" d="M33.697,67.995l2.435-6.084h0.934l2.437,6.084h-0.993l-0.646-1.697h-2.521l-0.652,1.697H33.697z
		 M36.598,62.98c-0.057,0.182-0.125,0.375-0.203,0.587l-0.739,1.917h1.893l-0.739-1.917L36.598,62.98z"/>
	<path class="st11" d="M43.957,65.068v2.927h-0.882v-2.663c0-0.302-0.084-0.535-0.251-0.702s-0.402-0.252-0.709-0.252
		c-0.317,0-0.584,0.125-0.802,0.373c-0.22,0.249-0.327,0.572-0.327,0.969v2.274h-0.882v-4.312h0.882v0.722
		c0.159-0.255,0.367-0.459,0.623-0.611c0.256-0.152,0.538-0.229,0.844-0.229c0.436,0,0.794,0.133,1.077,0.398
		C43.814,64.228,43.957,64.598,43.957,65.068"/>
	<path class="st11" d="M47.011,67.995l2.435-6.084h0.934l2.437,6.084h-0.993l-0.645-1.697h-2.521l-0.653,1.697H47.011z
		 M49.914,62.98c-0.057,0.182-0.125,0.375-0.205,0.587l-0.737,1.917h1.892l-0.739-1.917L49.914,62.98z"/>
	<path class="st11" d="M56.566,66.433l0.688,0.442c-0.419,0.827-1.081,1.241-1.987,1.241c-0.634,0-1.164-0.213-1.591-0.638
		c-0.427-0.424-0.641-0.97-0.641-1.637c0-0.663,0.218-1.207,0.653-1.634c0.435-0.426,0.962-0.641,1.579-0.641
		c0.47,0,0.873,0.103,1.21,0.31s0.581,0.493,0.734,0.862l-0.697,0.468c-0.272-0.549-0.686-0.824-1.239-0.824
		c-0.379,0-0.698,0.133-0.955,0.396c-0.257,0.262-0.386,0.618-0.386,1.065s0.125,0.802,0.378,1.065
		c0.252,0.262,0.572,0.394,0.963,0.394c0.31,0,0.564-0.073,0.76-0.217C56.231,66.94,56.409,66.721,56.566,66.433"/>
	<path class="st11" d="M57.967,66.46v-2.777h0.882v2.59c0,0.335,0.084,0.589,0.251,0.763c0.167,0.178,0.404,0.264,0.709,0.264
		c0.323,0,0.591-0.122,0.808-0.36c0.213-0.243,0.321-0.547,0.321-0.923v-2.335h0.882v4.312h-0.882v-0.695
		c-0.301,0.542-0.767,0.816-1.401,0.816c-0.451,0-0.827-0.142-1.123-0.424C58.116,67.407,57.967,66.997,57.967,66.46"/>
	<path class="st11" d="M65.349,63.607l-0.144,0.84c-0.108-0.033-0.22-0.051-0.34-0.051c-0.31,0-0.568,0.126-0.772,0.378
		c-0.202,0.251-0.305,0.569-0.305,0.955v2.264h-0.882v-4.312h0.882v0.732c0.264-0.566,0.68-0.85,1.247-0.85
		C65.12,63.565,65.225,63.579,65.349,63.607"/>
	<path class="st11" d="M65.866,61.995h1.011v1.001h-1.011V61.995z M65.934,63.683h0.884v4.312h-0.884V63.683z"/>
	<path class="st11" d="M68.64,64.729c0,0.175,0.088,0.316,0.266,0.424c0.179,0.107,0.45,0.195,0.813,0.262
		c0.496,0.102,0.865,0.255,1.099,0.459c0.234,0.202,0.352,0.482,0.352,0.84c0,0.396-0.149,0.728-0.451,0.995
		c-0.298,0.27-0.706,0.405-1.221,0.405c-0.48,0-0.882-0.121-1.206-0.358c-0.32-0.237-0.553-0.543-0.695-0.917l0.721-0.449
		c0.245,0.644,0.64,0.968,1.188,0.968c0.232,0,0.427-0.057,0.585-0.169c0.159-0.115,0.238-0.26,0.238-0.442
		c0-0.176-0.08-0.314-0.238-0.416c-0.157-0.102-0.419-0.187-0.779-0.255c-0.98-0.198-1.469-0.634-1.469-1.306
		c0-0.367,0.15-0.66,0.449-0.878c0.301-0.218,0.663-0.327,1.088-0.327c0.446,0,0.808,0.087,1.083,0.263
		c0.274,0.175,0.489,0.443,0.649,0.805l-0.653,0.383c-0.1-0.249-0.247-0.44-0.432-0.573c-0.186-0.134-0.396-0.199-0.627-0.199
		c-0.209,0-0.388,0.045-0.537,0.131C68.714,64.464,68.64,64.582,68.64,64.729"/>
	<path class="st11" d="M77.782,66.433l0.687,0.442c-0.42,0.825-1.081,1.24-1.987,1.24c-0.634,0-1.164-0.213-1.591-0.638
		c-0.428-0.424-0.641-0.97-0.641-1.637c0-0.663,0.215-1.207,0.652-1.634c0.435-0.426,0.961-0.641,1.579-0.641
		c0.47,0,0.874,0.103,1.21,0.31c0.337,0.206,0.581,0.493,0.734,0.862l-0.698,0.468c-0.271-0.549-0.683-0.824-1.239-0.824
		c-0.378,0-0.697,0.133-0.954,0.396c-0.257,0.262-0.386,0.618-0.386,1.065s0.126,0.802,0.377,1.065
		c0.252,0.262,0.575,0.394,0.963,0.394c0.31,0,0.564-0.073,0.76-0.217C77.446,66.94,77.622,66.721,77.782,66.433"/>
	<path class="st11" d="M83.193,64.597c0.233,0.355,0.348,0.768,0.348,1.244s-0.115,0.889-0.348,1.243
		c-0.232,0.355-0.519,0.615-0.862,0.782c-0.343,0.165-0.707,0.251-1.099,0.251c-0.611,0-1.149-0.203-1.61-0.606
		c-0.461-0.407-0.692-0.961-0.692-1.668s0.232-1.264,0.692-1.668c0.461-0.404,0.997-0.606,1.61-0.606
		c0.39,0,0.756,0.084,1.099,0.251S82.963,64.243,83.193,64.597 M80.24,66.892c0.271,0.271,0.602,0.408,0.993,0.408
		c0.39,0,0.721-0.137,0.992-0.408s0.408-0.622,0.408-1.052s-0.137-0.781-0.408-1.053c-0.271-0.271-0.602-0.408-0.992-0.408
		c-0.392,0-0.722,0.137-0.993,0.408c-0.271,0.272-0.408,0.623-0.408,1.053S79.969,66.621,80.24,66.892"/>
	<path class="st11" d="M90.397,64.838v3.157h-0.882v-2.851c0-0.533-0.251-0.798-0.748-0.798c-0.275,0-0.505,0.106-0.683,0.318
		c-0.179,0.21-0.266,0.53-0.266,0.954v2.376h-0.884v-2.827c0-0.249-0.061-0.447-0.187-0.596c-0.123-0.15-0.301-0.225-0.526-0.225
		c-0.278,0-0.51,0.11-0.698,0.331c-0.187,0.22-0.279,0.535-0.279,0.942v2.376h-0.881v-4.312h0.881v0.621
		c0.131-0.226,0.31-0.407,0.538-0.538c0.229-0.134,0.473-0.199,0.734-0.199c0.594,0,0.988,0.255,1.179,0.763
		c0.306-0.51,0.763-0.763,1.377-0.763c0.407,0,0.729,0.117,0.968,0.348C90.278,64.145,90.397,64.454,90.397,64.838"/>
	<path class="st11" d="M91.477,69.769v-6.086h0.881v0.663c0.142-0.222,0.352-0.407,0.629-0.556c0.276-0.149,0.577-0.225,0.9-0.225
		c0.561,0,1.034,0.205,1.419,0.619c0.383,0.413,0.576,0.965,0.576,1.656c0,0.686-0.198,1.233-0.591,1.651
		c-0.393,0.417-0.886,0.625-1.481,0.625c-0.305,0-0.589-0.064-0.848-0.191c-0.26-0.129-0.461-0.304-0.603-0.523v2.367H91.477z
		 M94.588,64.792c-0.259-0.274-0.575-0.413-0.947-0.413s-0.691,0.14-0.95,0.413c-0.26,0.274-0.392,0.623-0.392,1.048
		c0,0.424,0.131,0.772,0.392,1.046c0.259,0.275,0.577,0.413,0.95,0.413s0.688-0.138,0.947-0.413
		c0.256-0.274,0.385-0.623,0.385-1.046C94.973,65.415,94.844,65.067,94.588,64.792"/>
	<path class="st11" d="M100.513,67.995h-0.882c-0.153-0.175-0.236-0.426-0.247-0.756c-0.285,0.585-0.763,0.875-1.435,0.875
		c-0.436,0-0.79-0.125-1.061-0.369c-0.272-0.248-0.408-0.566-0.408-0.955c0-0.408,0.141-0.728,0.424-0.963
		c0.283-0.236,0.648-0.386,1.095-0.454l1.366-0.221v-0.178c0-0.497-0.299-0.748-0.9-0.748c-0.293,0-0.516,0.051-0.669,0.157
		c-0.152,0.104-0.229,0.24-0.229,0.402c0,0.046,0.005,0.091,0.019,0.137l-0.791,0.263c-0.045-0.107-0.068-0.224-0.068-0.35
		c0-0.35,0.159-0.649,0.477-0.898c0.316-0.249,0.737-0.373,1.263-0.373c0.585,0,1.027,0.125,1.333,0.373
		c0.306,0.249,0.459,0.611,0.459,1.085v1.893C100.258,67.354,100.343,67.713,100.513,67.995 M98.093,67.377
		c0.379,0,0.687-0.14,0.921-0.412c0.236-0.274,0.352-0.622,0.352-1.042v-0.118l-1.161,0.202c-0.554,0.098-0.832,0.341-0.832,0.73
		c0,0.194,0.068,0.347,0.199,0.462C97.702,67.319,97.878,67.377,98.093,67.377"/>
	<path class="st11" d="M105.204,65.068v2.927h-0.884v-2.663c0-0.302-0.084-0.535-0.251-0.702c-0.167-0.167-0.401-0.252-0.709-0.252
		c-0.316,0-0.583,0.125-0.801,0.373c-0.218,0.248-0.327,0.572-0.327,0.969v2.274h-0.882v-4.312h0.882v0.722
		c0.159-0.255,0.367-0.459,0.623-0.611c0.256-0.152,0.539-0.229,0.846-0.229c0.435,0,0.794,0.133,1.077,0.398
		C105.063,64.228,105.204,64.598,105.204,65.068"/>
	<path class="st11" d="M106.086,69.735l0.136-0.805c0.137,0.056,0.267,0.084,0.392,0.084c0.123,0,0.222-0.028,0.298-0.088
		c0.072-0.058,0.145-0.183,0.22-0.369l0.203-0.535l-1.758-4.338h1.019l1.214,3.117l1.213-3.117H110l-2.08,5.178
		c-0.255,0.646-0.659,0.969-1.214,0.969C106.479,69.83,106.273,69.798,106.086,69.735"/>
	<path class="st11" d="M33.697,53.907l7.304-18.247H43.8l7.304,18.247h-2.977l-1.934-5.091h-7.559l-1.96,5.091H33.697z
		 M42.398,38.868c-0.169,0.542-0.373,1.127-0.61,1.755l-2.214,5.751h5.675l-2.213-5.751L42.398,38.868z"/>
	<path class="st11" d="M54.612,53.907l-6.743-18.247h2.977l4.556,12.749c0.27,0.9,0.5,1.671,0.686,2.316l0.663-2.316l4.556-12.749
		h2.974l-6.744,18.247C57.536,53.907,54.612,53.907,54.612,53.907z"/>
	<path class="st11" d="M78.497,47.953l2.164,1.526c-1,1.645-2.109,2.854-3.319,3.625c-1.214,0.772-2.762,1.159-4.645,1.159
		c-2.613,0-4.775-0.886-6.49-2.66c-1.714-1.772-2.569-4.041-2.569-6.807c0-2.748,0.888-5.018,2.659-6.807
		c1.774-1.789,3.947-2.684,6.528-2.684c1.816,0,3.407,0.428,4.771,1.285c1.365,0.856,2.37,1.997,3.015,3.423l-2.239,1.629
		c-1.308-2.527-3.174-3.79-5.599-3.79c-1.747,0-3.228,0.661-4.439,1.984c-1.214,1.324-1.819,2.977-1.819,4.962
		c0,1.985,0.588,3.636,1.767,4.95c1.18,1.314,2.668,1.973,4.466,1.973C75.257,51.72,77.176,50.464,78.497,47.953"/>
	<path class="st11" d="M93.237,35.661v12.928c0,1.697-0.518,3.067-1.552,4.111c-1.037,1.043-2.419,1.564-4.149,1.564
		c-1.68,0-3.05-0.458-4.109-1.374c-1.062-0.916-1.591-2.377-1.591-4.377h2.824c0,2.202,1.05,3.208,2.951,3.208
		c0.866,0,1.549-0.276,2.049-0.828c0.503-0.55,0.752-1.319,0.752-2.304V35.661H93.237z"/>
</g>
</svg>
