<?xml version="1.0" encoding="utf-8"?>
<!-- Generator: Adobe Illustrator 21.1.0, SVG Export Plug-In . SVG Version: 6.00 Build 0)  -->
<svg version="1.1" id="Layer_1" xmlns="http://www.w3.org/2000/svg" xmlns:xlink="http://www.w3.org/1999/xlink" x="0px" y="0px"
	 viewBox="0 0 165 100" style="enable-background:new 0 0 165 100;" xml:space="preserve">
<style type="text/css">
	.st0{opacity:0.35;}
	.st1{fill:#8B8B8B;}
	.st2{fill:#545454;}
	.st3{fill:#6E6E6E;}
	.st4{opacity:0.4;}
	.st5{fill:#ABABAB;}
	.st6{fill:#393939;}
	.st7{fill:#1F1F1F;}
	.st8{fill:#6F6F6F;}
	.st9{fill:#5A5A5A;}
	.st10{fill:#9D9D9D;}
	.st11{fill:#3E3E3E;}
	.st12{fill-rule:evenodd;clip-rule:evenodd;fill:#515151;}
	.st13{fill-rule:evenodd;clip-rule:evenodd;fill:#050505;}
</style>
<g id="LOGOS" class="st4">
	<g id="left-logo_x2F_dark-orange_x2F_-btc-mag-logo">
		<g id="FINAL-left" transform="translate(100.000000, 100.000000)">
			<g id="Group">
				<g transform="translate(0.017387, 0.270475)">
					<g id="Shape">
						<path class="st5" d="M-84.604-54.493c0-0.225-0.14-0.309-0.308-0.225l-2.438,1.21c-0.168,0.084-0.308,0.337-0.308,0.534
							v11.081c0,0.225,0.14,0.309,0.308,0.225l2.438-1.209c0.168-0.084,0.308-0.338,0.308-0.535V-54.493L-84.604-54.493
							L-84.604-54.493z"/>
						<path class="st5" d="M-80.372-56.63c0-0.225-0.14-0.309-0.308-0.225l-2.438,1.209c-0.168,0.084-0.308,0.338-0.308,0.535
							v11.109c0,0.225,0.14,0.309,0.308,0.225l2.438-1.21c0.168-0.084,0.308-0.338,0.308-0.534V-56.63L-80.372-56.63z"/>
						<path class="st5" d="M-76.337-58.655c0-0.225-0.14-0.309-0.308-0.225l-2.438,1.209c-0.168,0.084-0.308,0.338-0.308,0.535
							v11.081c0,0.225,0.139,0.309,0.308,0.225l2.438-1.21c0.168-0.084,0.308-0.338,0.308-0.535V-58.655L-76.337-58.655z"/>
						<path class="st6" d="M-88.724-44.283c0-0.281-0.168-0.591-0.392-0.703l-10.509-5.231c-0.224-0.113-0.392,0-0.392,0.281v2.306
							c0,0.281,0.168,0.591,0.392,0.703l10.509,5.259c0.224,0.113,0.392-0.028,0.392-0.309V-44.283L-88.724-44.283z"/>
						<path class="st6" d="M-88.724-48.558c0-0.281-0.168-0.591-0.392-0.703l-10.509-5.231c-0.224-0.113-0.392,0-0.392,0.281v2.306
							c0,0.281,0.168,0.591,0.392,0.703l10.509,5.231c0.224,0.113,0.392-0.028,0.392-0.309V-48.558L-88.724-48.558z"/>
						<path class="st6" d="M-88.724-52.862c0-0.281-0.168-0.59-0.392-0.703l-10.509-5.231c-0.224-0.113-0.392,0.028-0.392,0.281
							v2.306c0,0.281,0.168,0.59,0.392,0.703l10.509,5.259c0.224,0.113,0.392-0.028,0.392-0.309V-52.862L-88.724-52.862z"/>
					</g>
					<g transform="translate(201.546301, 22.432527)">
						<path id="Shape_1_" class="st6" d="M-270.828-77.796h4.214c0.383,0,0.761,0.045,1.134,0.136
							c0.373,0.092,0.705,0.24,0.997,0.447c0.292,0.206,0.529,0.473,0.711,0.799c0.182,0.327,0.272,0.721,0.272,1.182
							c0,0.576-0.162,1.051-0.488,1.425c-0.325,0.374-1.005,0.643-1.531,0.806l0.254,0.029c0.641,0.087,1.167,0.336,1.579,0.749
							c0.411,0.413,0.617,0.965,0.617,1.657c0,0.557-0.11,1.024-0.33,1.404s-0.51,0.685-0.868,0.915
							c-0.359,0.231-0.771,0.396-1.234,0.497c-0.464,0.101-0.935,0.151-1.414,0.151h-3.913V-77.796L-270.828-77.796z
							 M-269.021-73.648h1.862c0.602,0,1.062-0.12,1.378-0.36c0.316-0.24,0.473-0.581,0.473-1.023c0-0.461-0.162-0.787-0.487-0.98
							c-0.326-0.192-0.832-0.288-1.522-0.288h-1.703V-73.648L-269.021-73.648z M-269.021-69.126h1.876
							c0.229,0,0.478-0.017,0.746-0.05c0.268-0.033,0.514-0.103,0.739-0.208c0.225-0.106,0.412-0.26,0.56-0.461
							c0.148-0.202,0.222-0.47,0.222-0.806c0-0.538-0.182-0.912-0.545-1.124c-0.364-0.211-0.914-0.317-1.65-0.317h-1.948V-69.126
							L-269.021-69.126z"/>
						<rect id="Rectangle-path" x="-261.321" y="-77.796" class="st6" width="1.808" height="10.197"/>
						<path id="Shape_2_" class="st6" d="M-255.221-76.212h-3.114v-1.584h8.036v1.584h-3.114v8.613h-1.808V-76.212L-255.221-76.212z
							"/>
						<path id="Shape_3_" class="st6" d="M-242.22-75.405c-0.267-0.365-0.617-0.631-1.047-0.799
							c-0.431-0.168-0.852-0.252-1.263-0.252c-0.526,0-1.005,0.096-1.435,0.289c-0.431,0.192-0.801,0.456-1.112,0.792
							c-0.311,0.336-0.551,0.729-0.718,1.181c-0.167,0.452-0.251,0.941-0.251,1.469c0,0.557,0.081,1.065,0.244,1.526
							c0.162,0.461,0.395,0.857,0.696,1.188s0.663,0.589,1.083,0.77c0.421,0.182,0.895,0.274,1.421,0.274
							c0.546,0,1.029-0.108,1.45-0.324c0.42-0.216,0.76-0.502,1.018-0.857l1.45,1.022c-0.45,0.566-1,1.006-1.65,1.318
							c-0.651,0.312-1.412,0.468-2.282,0.468c-0.794,0-1.524-0.132-2.189-0.396c-0.665-0.264-1.236-0.634-1.715-1.109
							c-0.478-0.475-0.851-1.042-1.119-1.699c-0.268-0.657-0.402-1.385-0.402-2.181c0-0.817,0.141-1.553,0.423-2.211
							c0.282-0.658,0.67-1.217,1.162-1.678c0.493-0.461,1.074-0.817,1.744-1.066c0.67-0.25,1.397-0.374,2.181-0.374
							c0.325,0,0.665,0.031,1.018,0.094c0.354,0.062,0.694,0.159,1.019,0.288c0.326,0.13,0.631,0.291,0.919,0.483
							c0.287,0.192,0.531,0.423,0.732,0.691L-242.22-75.405L-242.22-75.405z"/>
						<path id="Shape_4_" class="st6" d="M-240.225-72.726c0-0.817,0.136-1.553,0.409-2.211c0.272-0.658,0.65-1.217,1.133-1.678
							s1.057-0.817,1.722-1.066c0.665-0.25,1.389-0.374,2.174-0.374c0.794,0,1.526,0.125,2.196,0.374
							c0.669,0.25,1.248,0.605,1.736,1.066c0.487,0.461,0.868,1.02,1.141,1.678c0.272,0.658,0.409,1.394,0.409,2.211
							c0,0.796-0.137,1.524-0.409,2.181c-0.273,0.658-0.653,1.225-1.141,1.699c-0.488,0.475-1.067,0.845-1.736,1.109
							c-0.67,0.264-1.402,0.396-2.196,0.396c-0.785,0-1.509-0.132-2.174-0.396c-0.665-0.264-1.239-0.634-1.722-1.109
							c-0.483-0.475-0.861-1.042-1.133-1.699C-240.089-71.202-240.225-71.93-240.225-72.726L-240.225-72.726z M-238.259-72.726
							c0,0.547,0.083,1.049,0.251,1.505c0.167,0.456,0.407,0.852,0.718,1.188c0.311,0.336,0.679,0.598,1.105,0.785
							c0.426,0.188,0.897,0.281,1.414,0.281s0.99-0.094,1.42-0.281c0.431-0.187,0.801-0.449,1.113-0.785
							c0.311-0.336,0.55-0.732,0.717-1.188c0.167-0.456,0.251-0.958,0.251-1.505c0-0.528-0.083-1.018-0.251-1.469
							c-0.167-0.452-0.404-0.845-0.71-1.181c-0.306-0.336-0.675-0.6-1.105-0.792c-0.431-0.193-0.908-0.289-1.435-0.289
							c-0.526,0-1.003,0.096-1.428,0.289c-0.426,0.192-0.791,0.456-1.098,0.792c-0.306,0.336-0.543,0.729-0.711,1.181
							C-238.175-73.744-238.259-73.254-238.259-72.726L-238.259-72.726z"/>
						<rect id="Rectangle-path_1_" x="-227.553" y="-77.796" class="st6" width="1.808" height="10.197"/>
						<path id="Shape_5_" class="st6" d="M-223.506-77.796h2.397l4.721,7.633h0.029v-7.633h1.808v10.197h-2.296l-4.821-7.878h-0.029
							v7.878h-1.808V-77.796L-223.506-77.796z"/>
					</g>
					<g transform="translate(593.232094, 22.432527)">
						<path id="Shape_6_" class="st5" d="M-597.463-69.961h0.029l2.999-7.834h2.209v10.197h-1.42v-8.526h-0.029l-3.372,8.526h-0.904
							l-3.358-8.526h-0.029v8.526h-1.378v-10.197h2.21L-597.463-69.961L-597.463-69.961z"/>
						<path id="Shape_7_" class="st5" d="M-589.34-67.599h-1.579l4.406-10.197h1.292l4.363,10.197h-1.608l-1.033-2.507h-4.822
							L-589.34-67.599L-589.34-67.599z M-587.819-71.359h3.803l-1.895-4.781L-587.819-71.359L-587.819-71.359z"/>
						<path id="Shape_8_" class="st5" d="M-572.148-75.693c-0.306-0.336-0.696-0.605-1.169-0.807
							c-0.474-0.201-1.003-0.302-1.586-0.302c-0.593,0-1.128,0.108-1.607,0.324c-0.478,0.216-0.885,0.511-1.22,0.886
							c-0.335,0.374-0.593,0.809-0.775,1.303c-0.182,0.495-0.272,1.021-0.272,1.578c0,0.566,0.091,1.099,0.272,1.598
							s0.44,0.933,0.775,1.303c0.335,0.369,0.746,0.66,1.234,0.871c0.488,0.211,1.034,0.317,1.636,0.317
							c0.479,0,0.919-0.043,1.32-0.13s0.751-0.211,1.048-0.374v-2.837h-2.253v-1.21h3.659v4.94c-0.536,0.288-1.119,0.509-1.75,0.662
							c-0.632,0.154-1.32,0.231-2.067,0.231c-0.794,0-1.523-0.132-2.188-0.396c-0.665-0.264-1.237-0.634-1.715-1.109
							c-0.479-0.475-0.852-1.042-1.12-1.699c-0.267-0.657-0.402-1.38-0.402-2.167c0-0.797,0.137-1.524,0.409-2.182
							c0.273-0.658,0.65-1.22,1.134-1.685c0.483-0.466,1.054-0.828,1.715-1.088c0.66-0.259,1.377-0.389,2.152-0.389
							c0.814,0,1.538,0.12,2.174,0.36c0.637,0.24,1.165,0.562,1.586,0.965L-572.148-75.693L-572.148-75.693z"/>
						<path id="Shape_9_" class="st5" d="M-568.23-67.599h-1.579l4.406-10.197h1.292l4.363,10.197h-1.608l-1.033-2.507h-4.822
							L-568.23-67.599L-568.23-67.599z M-566.709-71.359h3.803l-1.894-4.781L-566.709-71.359L-566.709-71.359z"/>
						<path id="Shape_10_" class="st5" d="M-551.741-76.543l-5.741,7.677h5.827v1.267h-7.549v-1.253l5.726-7.691h-5.611v-1.253
							h7.348V-76.543L-551.741-76.543z"/>
						<rect id="Rectangle-path_2_" x="-549.947" y="-77.796" class="st5" width="1.421" height="10.197"/>
						<path id="Shape_11_" class="st5" d="M-538.898-69.645h0.029v-8.151h1.421v10.197h-1.794l-5.367-8.325h-0.029v8.325h-1.421
							v-10.197h1.852L-538.898-69.645L-538.898-69.645z"/>
						<path id="Shape_12_" class="st5" d="M-533.559-68.866h5.309v1.267h-6.73v-10.197h6.516v1.253h-5.095v3.053h4.793v1.225h-4.793
							V-68.866L-533.559-68.866z"/>
					</g>
				</g>
			</g>
		</g>
	</g>
</g>
</svg>
