<?xml version="1.0" encoding="utf-8"?>
<!-- Generator: Adobe Illustrator 21.1.0, SVG Export Plug-In . SVG Version: 6.00 Build 0)  -->
<svg version="1.1" id="Layer_1" xmlns="http://www.w3.org/2000/svg" xmlns:xlink="http://www.w3.org/1999/xlink" x="0px" y="0px"
	 viewBox="0 0 120 100" style="enable-background:new 0 0 120 100;" xml:space="preserve">
<style type="text/css">
	.st0{opacity:0.35;}
	.st1{fill:#8B8B8B;}
	.st2{fill:#545454;}
	.st3{fill:#6E6E6E;}
	.st4{opacity:0.4;}
	.st5{fill:#ABABAB;}
	.st6{fill:#393939;}
	.st7{fill:#1F1F1F;}
	.st8{fill:#6F6F6F;}
	.st9{fill:#5A5A5A;}
	.st10{fill:#9D9D9D;}
	.st11{fill:#3E3E3E;}
	.st12{fill-rule:evenodd;clip-rule:evenodd;fill:#515151;}
	.st13{fill-rule:evenodd;clip-rule:evenodd;fill:#050505;}
</style>
<g class="st0">
	<path class="st1" d="M70.84,33.886c-19.324,1.702-42.114,10.06-58.927,20.529l0.993,0.001
		c20.318-10.649,40.931-17.073,57.869-18.342c-0.018-0.26-0.031-0.521-0.031-0.784C70.745,34.815,70.779,34.345,70.84,33.886"/>
	<path class="st1" d="M91.843,35.354c-0.005,0.817-0.104,1.611-0.284,2.374c9.194,2.692,15.488,8.322,17.363,17.25l0.309-0.001
		C107.925,44.281,101.333,38.123,91.843,35.354"/>
	<path class="st1" d="M83.033,29.435c0.024,0.024,0.065,0.024,0.089,0l2.596-2.519c0.009-0.009,0.013-0.02,0.017-0.032
		c-0.069-0.034-0.137-0.072-0.206-0.104l-2.499,2.563C83.006,29.369,83.007,29.409,83.033,29.435 M83.624,29.976
		c0.025,0.024,0.066,0.024,0.092,0l2.751-2.644c0.007-0.006,0.007-0.017,0.009-0.024c-0.071-0.047-0.143-0.091-0.217-0.135
		l-2.634,2.713C83.599,29.91,83.599,29.952,83.624,29.976 M84.068,30.658c0.026,0.024,0.066,0.024,0.091,0l2.978-2.876
		c0.005-0.004,0.002-0.01,0.006-0.015c-0.071-0.054-0.145-0.107-0.217-0.157l-2.859,2.955
		C84.043,30.592,84.043,30.632,84.068,30.658 M81.663,27.433c0.025,0.026,0.065,0.026,0.091,0.002l1.422-1.366
		c0.017-0.015,0.012-0.04,0.004-0.064c-0.066-0.012-0.134-0.024-0.201-0.037l-1.317,1.373C81.637,27.37,81.639,27.409,81.663,27.433
		 M80.309,26.601l0.705-0.674c0.018-0.018,0.026-0.048,0.015-0.072c-0.002-0.005-0.006-0.007-0.007-0.01
		c-0.064,0.002-0.129,0.005-0.194,0.009l-0.611,0.655c-0.026,0.027-0.023,0.067,0.001,0.092
		C80.243,26.625,80.283,26.625,80.309,26.601 M84.425,31.447c0.025,0.027,0.065,0.027,0.091,0.002l3.265-3.143
		c0.002-0.002,0.002-0.006,0.004-0.009c-0.071-0.064-0.145-0.126-0.218-0.189l-3.141,3.248
		C84.399,31.383,84.399,31.424,84.425,31.447 M81.553,28.652c0.024,0.026,0.066,0.026,0.092,0.001l2.434-2.372
		c0.013-0.015,0.013-0.036,0.01-0.055c-0.065-0.02-0.13-0.038-0.196-0.056l-2.339,2.391C81.528,28.587,81.528,28.628,81.553,28.652
		 M82.371,28.926c0.025,0.024,0.065,0.024,0.091,0l2.443-2.37c0.012-0.011,0.016-0.026,0.018-0.04
		c-0.071-0.029-0.142-0.059-0.214-0.086l-2.34,2.404C82.346,28.86,82.346,28.901,82.371,28.926 M82.151,25.873
		c0-0.001-0.002-0.002-0.002-0.005c-0.07-0.005-0.138-0.011-0.209-0.015l-0.769,0.819c-0.026,0.026-0.026,0.065,0.001,0.089
		c0.025,0.024,0.064,0.024,0.088,0.002 M84.738,32.189c-0.001,0.001-0.001,0.004-0.002,0.006c-0.001,0-0.006,0.007-0.006,0.007
		c-0.011,0.011-0.016,0.024-0.016,0.037c0,0.018,0.007,0.034,0.022,0.049c0.026,0.023,0.07,0.016,0.096-0.009l0.042-0.043
		l3.468-3.333c0.011-0.01,0.015-0.024,0.017-0.04c-0.064-0.067-0.127-0.136-0.192-0.201c-0.016,0-0.032,0.005-0.042,0.017
		l-3.345,3.466L84.738,32.189z M72.081,33.798l1.063-1.094c0.024-0.024,0.024-0.066-0.001-0.091
		c-0.024-0.024-0.065-0.026-0.091-0.001l-1.028,0.983c-0.013,0.066-0.023,0.132-0.037,0.198c0.005,0.005,0.009,0.012,0.017,0.016
		C72.031,33.824,72.062,33.818,72.081,33.798 M72.431,32.416l0.581-0.601c0.024-0.026,0.024-0.066,0-0.091
		c-0.024-0.026-0.065-0.026-0.093-0.001l-0.528,0.501c-0.022,0.059-0.04,0.119-0.06,0.178c0.005,0.009,0.011,0.018,0.02,0.024
		C72.378,32.441,72.411,32.438,72.431,32.416 M73.524,34.443c-0.026-0.026-0.064-0.026-0.093-0.002l-1.557,1.472
		c0.004,0.078,0.011,0.156,0.016,0.233c0.002,0.001,0.005,0.002,0.005,0.002c0.023,0.009,0.049,0.004,0.067-0.016l1.562-1.598
		C73.548,34.508,73.548,34.467,73.524,34.443 M71.944,35.06l1.377-1.433c0.025-0.026,0.025-0.067-0.001-0.091
		c-0.023-0.027-0.064-0.027-0.091-0.002l-1.356,1.296c-0.004,0.078-0.006,0.158-0.007,0.238c0.004,0.002,0.005,0.006,0.009,0.009
		C71.899,35.086,71.927,35.081,71.944,35.06 M74.741,35.598c-0.024-0.023-0.065-0.024-0.089,0l-2.442,2.34
		c0.028,0.1,0.056,0.202,0.087,0.303c0.02,0,0.038-0.005,0.051-0.018l2.394-2.533C74.767,35.664,74.767,35.624,74.741,35.598
		 M84.689,33.35l-0.002,0.001c-0.011,0.012-0.016,0.028-0.016,0.045c0,0.017,0.006,0.033,0.02,0.047
		c0.026,0.024,0.067,0.023,0.092-0.002l0.001-0.001c0.066-0.069,2.707-2.607,4.094-3.941c0.005-0.004,0.005-0.012,0.009-0.017
		c-0.065-0.082-0.129-0.164-0.196-0.244c-0.011,0.004-0.023,0.004-0.029,0.011L84.689,33.35z M84.407,34.847
		c0.025,0.026,0.067,0.025,0.092-0.001c0.438-0.447,4.799-4.632,4.843-4.675c0.009-0.01,0.016-0.022,0.018-0.034
		c-0.062-0.094-0.127-0.185-0.191-0.276c-0.016,0-0.033,0.004-0.045,0.016l-4.718,4.879C84.381,34.782,84.381,34.822,84.407,34.847
		 M73.87,35.204c-0.024-0.024-0.065-0.026-0.089-0.001l-1.802,1.693c0.016,0.094,0.032,0.186,0.05,0.28
		c0.022,0.006,0.047,0,0.062-0.017l1.781-1.864C73.896,35.269,73.896,35.229,73.87,35.204 M90.86,34.267
		c-0.018-0.16-0.04-0.32-0.069-0.476l-5.595,5.757l-5.313,5.237c0.181,0.028,0.364,0.054,0.547,0.071h0.033l5.707-5.925
		L90.86,34.267z M86.224,36.553c0.104-0.136,3.111-2.969,4.258-4.048c0.001-0.002,0.001-0.005,0.001-0.005
		c-0.038-0.121-0.077-0.24-0.12-0.359c-0.012-0.016-0.028-0.026-0.048-0.027c-0.022-0.002-0.043,0.007-0.056,0.026
		c-0.082,0.102-2.808,2.89-4.24,4.349c-0.081,0.113-1.953,1.964-3.194,3.184c-0.105,0.137-3.199,3.068-4.819,4.6
		c-0.002,0.002-0.005,0.006-0.007,0.009c0.163,0.061,0.325,0.119,0.491,0.173l4.708-4.871L86.224,36.553z M86.526,37.404
		l4.179-4.071c-0.032-0.152-0.069-0.304-0.11-0.453l-3.334,3.405c-0.099,0.133-2.901,2.912-3.973,3.974l-4.453,4.287
		c-0.002,0.001-0.002,0.005-0.005,0.009c0.189,0.051,0.38,0.102,0.573,0.141l3.677-3.816L86.526,37.404z M85.357,35.225
		c0.102-0.13,3.157-3.057,4.465-4.306c-0.069-0.129-0.14-0.257-0.214-0.382c-0.46,0.565-4.652,4.874-4.693,4.916
		c-0.075,0.092-2.398,2.391-3.615,3.595l-4.74,4.535c-0.001,0-0.001,0.002-0.004,0.004c0.133,0.08,0.269,0.156,0.408,0.228
		l4.798-4.987L85.357,35.225z M84.384,37.273l2.541-2.539l3.206-3.05c0.023-0.021,0.028-0.054,0.012-0.078l-0.127-0.228
		c-0.009-0.017-0.028-0.029-0.048-0.032c-0.021-0.004-0.042,0.005-0.055,0.018l-3.462,3.576c-0.104,0.156-2.841,2.872-4.659,4.666
		c-0.097,0.14-2.342,2.269-4.529,4.325c-0.007,0.006-0.013,0.017-0.017,0.026c0.143,0.071,0.291,0.137,0.44,0.2l2.157-2.261
		C79.929,41.787,82.851,38.825,84.384,37.273 M85.243,44.092c2.164-0.958,3.906-2.696,4.865-4.86
		C88.801,40.55,86.594,42.748,85.243,44.092 M83.434,44.643c0.05-0.009,0.113-0.007,0.179-0.002c0.235-0.055,0.467-0.12,0.694-0.194
		l6.191-6.246c0.085-0.276,0.158-0.557,0.218-0.841C89.471,38.653,83.434,44.643,83.434,44.643 M90.924,35.302
		c-0.002-0.187-0.007-0.372-0.02-0.557l-4.974,5.097c-0.137,0.217-4.53,4.501-5.091,5.046c0.169,0.009,0.34,0.015,0.513,0.015
		c0.1-0.02,0.173-0.036,0.173-0.036l4.08-4.213L90.924,35.302z M82.027,44.876c0.004,0.001,0.012,0.002,0.017,0.004
		c0.256-0.017,0.509-0.043,0.757-0.08c0.977-0.994,7.444-7.581,8.042-8.192c0.028-0.219,0.05-0.442,0.065-0.667
		C89.769,37.22,82.027,44.876,82.027,44.876 M82.25,37.004c-0.026-0.026-0.065-0.026-0.091,0l-6.331,6.103
		c-0.004,0.001,0,0.002-0.004,0.004c0.126,0.091,0.254,0.178,0.383,0.261l6.042-6.276C82.276,37.07,82.276,37.028,82.25,37.004
		 M76.602,35.978c-0.024-0.025-0.066-0.026-0.091-0.002l-3.715,3.528c0.053,0.108,0.109,0.214,0.165,0.321
		c0.011-0.004,0.022-0.009,0.029-0.017l3.611-3.739C76.626,36.043,76.626,36.004,76.602,35.978 M77.295,36.414
		c-0.023-0.026-0.064-0.026-0.089,0l-4.017,3.814c0.065,0.11,0.132,0.219,0.202,0.326c0.01-0.004,0.018-0.001,0.025-0.009
		l3.882-4.04C77.322,36.479,77.321,36.44,77.295,36.414 M75.182,36.234c-0.026-0.026-0.065-0.027-0.092-0.004l-2.631,2.476
		c0.038,0.104,0.078,0.206,0.12,0.307c0.015-0.002,0.031-0.006,0.042-0.018l2.561-2.672C75.207,36.299,75.207,36.258,75.182,36.234
		 M77.846,36.836c-0.024-0.026-0.066-0.026-0.091-0.001l-4.159,4.023c0.071,0.099,0.142,0.198,0.214,0.294
		c0.006-0.002,0.011-0.002,0.016-0.006l4.021-4.22C77.872,36.901,77.872,36.86,77.846,36.836 M79.635,37.416
		c-0.023-0.026-0.064-0.026-0.089-0.001l-4.901,4.691c0,0,0,0.001-0.001,0.001c0.094,0.093,0.187,0.182,0.284,0.271l4.71-4.871
		C79.661,37.481,79.661,37.442,79.635,37.416 M78.708,37.18c-0.023-0.026-0.064-0.026-0.089,0l-4.522,4.327
		c0.083,0.099,0.167,0.197,0.254,0.293c0.002-0.002,0.006-0.001,0.007-0.004l4.352-4.527C78.734,37.245,78.734,37.203,78.708,37.18
		 M80.79,37.402c-0.026-0.026-0.066-0.026-0.091-0.001l-5.475,5.237v0.001c0.109,0.093,0.222,0.185,0.336,0.272l5.23-5.417
		C80.816,37.466,80.816,37.427,80.79,37.402"/>
	<polygon class="st1" points="82.092,30.949 82.039,30.952 82.077,31.032 82.135,31.08 82.201,31.081 82.264,31.068 82.326,31.049 
		82.383,31.024 82.432,30.972 82.493,30.948 82.564,30.95 82.616,30.925 82.628,30.84 82.643,30.754 82.626,30.667 82.59,30.582 
		82.595,30.52 82.666,30.489 82.639,30.403 82.593,30.335 82.535,30.313 82.475,30.311 82.416,30.302 82.357,30.304 82.304,30.327 
		82.262,30.381 82.228,30.448 82.191,30.512 82.127,30.496 82.083,30.538 82.063,30.62 82.09,30.693 82.145,30.735 82.155,30.82 
		82.142,30.916 	"/>
	<path class="st1" d="M89.217,34.407l0.091-0.042l0.039-0.049l0.118,0.127l0.122,0.133l0.124,0.158l0.134,0.114l0.14,0.189
		l0.096,0.305l0.162,0.078l0.138,0.244l0.119,0.229l0.078,0.314l0.219,0.069l0.108-0.296l0.039-0.359l0.013-0.26
		c-0.002-0.671-0.078-1.323-0.213-1.953h0.001l-0.012-0.049c-0.007-0.043-0.015-0.085-0.025-0.125l-0.004-0.007l-0.054-0.233
		c-0.838-3.217-3.314-5.773-6.486-6.723L83.91,26.21l-0.182-0.037l-0.121-0.017l0.136,0.034l0.183,0.037l0.051,0.027l0.185,0.066
		l-0.086-0.012l-0.29-0.05l0.067,0.056l0.055,0.045l0.277,0.099l0.276,0.12l0.301,0.127l0.252,0.083l0.078,0.11l-0.169,0.022
		l0.137,0.089l0.339,0.173l0.175,0.105l-0.317-0.001l0.266,0.097l0.01,0.109l-0.111,0.073l-0.083,0.056l0.11,0.154l0.292,0.168
		l-0.316-0.037l0.049,0.12l-0.312-0.13l-0.342-0.043l-0.367-0.058l-0.354-0.004L83.9,27.952l-0.121,0.208l-0.067,0.192l0.158,0.267
		l-0.036,0.28l-0.213,0.235l-0.061,0.291l0.222,0.344l0.338,0.017l0.337,0.058l0.322,0.307l0.228-0.119l-0.125-0.353l-0.018-0.336
		l-0.304-0.294l0.081-0.284l-0.053-0.295l0.224,0.236l0.05,0.317l0.397,0.233l0.29-0.192l-0.094,0.219l0.132,0.296l-0.209,0.153
		l0.17,0.381l-0.342,0.182l-0.301,0.062l-0.304,0.153l-0.094-0.012l-0.051,0.01l-0.059-0.005l-0.134,0.187l-0.105,0.136
		l-0.059,0.078l-0.111,0.19l-0.209,0.14l-0.056,0.206l-0.136,0.152l-0.253-0.064l-0.061,0.07l-0.121,0.062l-0.089,0.049l-0.096,0.11
		l0.127,0.093l0.178,0.031l0.137,0.097l0.064,0.132l0.123,0.108l0.01,0.142l0.007,0.145l-0.004,0.167l-0.131,0.071l-0.208-0.007
		l-0.205,0.022l-0.234,0.006l-0.244-0.038l-0.162,0.132l0.058,0.213l0.048,0.228l-0.031,0.222l-0.075,0.202l0.109,0.216
		l-0.011,0.218l0.225-0.033l0.212,0.055l0.171,0.16l0.159-0.141l0.225-0.037l0.201-0.059l0.154-0.151l0.076-0.197l-0.006-0.143
		l0.025-0.203l0.087-0.196l0.173-0.118l0.145-0.149l-0.073-0.208l0.134-0.135l0.217,0.033l0.171-0.043l0.131-0.127l0.094-0.143
		l0.2,0.024l0.104,0.165l0.137,0.146l0.169,0.053l0.168,0.104l0.157,0.072l0.16,0.122l0.157,0.1l0.061,0.187l0.138,0.162
		l0.026-0.296l-0.098-0.153l-0.001-0.19l0.249,0.11l-0.011-0.087l-0.296-0.137l-0.162-0.115l-0.135,0.017l-0.191-0.082l-0.13-0.175
		l-0.178-0.103L85.5,32.195l-0.096-0.184l0.129-0.023l0.14,0.033l0.088,0.065l0.152,0.136l0.13,0.028l0.119,0.077l0.151,0.078
		l0.141,0.056l0.131,0.06l0.073,0.093l0.036,0.125l0.053,0.11l0.1,0.06l0.083,0.083l0.082,0.085l0.086,0.065l0.111-0.031
		l0.158,0.012l-0.006-0.171l0.307-0.244l0.144,0.198l0.214,0.208l0.278-0.073l0.263-0.06l0.229-0.208l0.247,0.258l-0.009,0.005
		l-0.087,0.066l0.023,0.213l0.05,0.214l0.023,0.208l-0.053,0.122l-0.094,0.045l-0.125,0.006l-0.116,0.107l-0.142,0.148l-0.256,0.039
		l-0.349,0.028l-0.42,0.002l-0.099,0.566l-0.518-0.129l-0.487-0.027l-0.557-0.233l-0.064-0.611l-0.485,0.146l-0.514,0.351
		l-0.486,0.228l-0.487,0.162l-0.616,0.162l-0.35,0.097l-0.386,0.486l-0.23,0.642l-0.535,0.351l-0.333,0.6l-0.314,0.606l0.16,0.667
		l-0.267,0.62l0.187,0.615l0.617,0.446l0.467,0.528l0.718,0.37l0.843-0.202l0.895-0.25l0.839-0.142l0.768,0.105l-0.1,0.756
		l0.451,0.374l0.107,0.462l-0.033,0.389l-0.333,0.391l-0.147,0.271l0.096,0.104l0.05,0.088l-0.023,0.098l-0.047,0.091l-0.028,0.067
		l-0.006,0.045l0.027,0.02l0.032,0.007l-0.01,0.028l0.009,0.013l-0.026,0.016c2.599-1.538,4.385-4.274,4.637-7.449L90.9,36.225
		l-0.097,0.234l-0.376,0.288l-0.213-0.369l-0.364-0.316l-0.364-0.377l-0.163-0.38l-0.257-0.174l-0.323-0.29l0.432-0.257
		L89.217,34.407z M90.705,33.388v-0.004V33.388z"/>
	<polygon class="st1" points="82.555,30.179 82.675,30.294 82.79,30.43 82.929,30.42 83.034,30.569 82.913,30.619 82.831,30.745 
		82.864,30.936 82.83,31.039 82.961,31.011 83.072,31.074 82.961,31.123 82.887,31.25 82.773,31.344 82.848,31.373 82.956,31.359 
		83.048,31.327 83.139,31.296 83.231,31.264 83.311,31.214 83.388,31.166 83.482,31.177 83.574,31.169 83.661,31.147 83.743,31.078 
		83.706,30.967 83.713,30.891 83.749,30.767 83.638,30.685 83.52,30.667 83.416,30.522 83.311,30.391 83.186,30.299 83.087,30.139 
		82.962,30.063 83.027,29.917 83,29.765 82.942,29.715 82.867,29.68 82.789,29.692 82.73,29.667 82.619,29.651 82.554,29.795 
		82.445,29.867 82.555,29.98 	"/>
	<path class="st1" d="M82.001,26.894l0.143-0.086l-0.208-0.027l-0.152-0.034l0.087-0.033l-0.099-0.086l-0.217-0.043l-0.241,0.011
		l-0.253,0.028l-0.238-0.013l-0.249,0.027l-0.253,0.042l-0.249,0.076l-0.254,0.013l-0.159,0.107l-0.131,0.127l0.196,0.058
		l-0.028,0.16l-0.179,0.164l-0.219,0.156l0.028,0.135l-0.203,0.066l-0.138,0.154l0.039,0.07l-0.241,0.11l-0.18,0.141l-0.118,0.153
		l-0.047,0.13l-0.187-0.122l-0.026-0.209l-0.298,0.042l-0.414,0.099l0.42-0.323l0.098-0.145l-0.017-0.131l0.044-0.136l0.017-0.115
		l0.005-0.096l-0.159-0.047l-0.067-0.071l0.145-0.13l0.135-0.114l0.077-0.089l0.099-0.086l0.075-0.076l-0.026-0.044l0.087-0.051
		l0.246-0.069l-0.062-0.022l0.027-0.048l-0.146-0.016l0.007-0.042l-0.282,0.098l-0.086-0.013l-0.054-0.01l-0.279,0.115l-0.159,0.091
		l-0.073-0.015l-0.132,0.013l-0.157,0.067c-2.476,1.19-4.353,3.423-5.077,6.125c-0.011-0.015-0.023-0.024-0.034-0.038
		c-0.213,0.789-0.327,1.618-0.327,2.474c0,0.246,0.011,0.489,0.029,0.729c0.017-0.009,0.034-0.012,0.05-0.022l-0.005,0.094
		l0.073,0.321l0.121,0.229l0.094,0.273l0.122,0.228l0.121,0.231l0.146,0.209l0.179,0.058l0.167,0.262l0.138,0.344l0.047-0.358
		l0.011,0.001l-0.047,0.353l0.23,0.266l0.239,0.28l0.322,0.534l0.083,0.151l-0.018,0.006l-0.159-0.038l0.167,0.448l0.011,0.38
		l-0.246,0.122l-0.192,0.152l0.154,0.355L73.69,40.99c0.245,0.333,0.511,0.65,0.795,0.95c0.012,0.012,0.026,0.027,0.04,0.04
		c0.282,0.293,0.583,0.568,0.9,0.824c0.013,0.011,0.029,0.022,0.043,0.033c0.147,0.119,0.299,0.23,0.453,0.338
		c0.015,0.012,0.028,0.023,0.045,0.032c0.329,0.23,0.676,0.44,1.036,0.627c0.027,0.013,0.054,0.026,0.08,0.042
		c0.176,0.088,0.356,0.174,0.54,0.252l0.17,0.04l0.342,0.066l0.32,0.051l0.283,0.036l0.171,0.005h0.24l0.196-0.023l0.082-0.05
		l0.156-0.058l0.345-0.033l0.358-0.045l0.348-0.051l0.238-0.107l0.173-0.142l0.143-0.163l0.034-0.18l0.327-0.187l0.342-0.213
		l0.217-0.256l-0.145-0.217l-0.458-0.044l-0.426-0.121l-0.535-0.004l-0.48-0.14l-0.502-0.121l-0.54-0.087l0.064-0.293l-0.273-0.349
		l-0.484-0.235l-0.536-0.12l-0.407-0.309l-0.408-0.342l-0.458-0.291l-0.48-0.093l-0.48-0.182l-0.332-0.396l-0.196-0.018l-0.372-0.08
		l-0.354,0.054l0.031-0.131l0.066-0.298l-0.222-0.278l-0.25-0.133l-0.23-0.12l-0.051-0.207l0.078-0.209l-0.005-0.006l0.12-0.195
		l0.102-0.217l0.045-0.18l-0.182-0.11l-0.171-0.05l-0.137,0.021l-0.076,0.169l-0.096,0.087l-0.127-0.022l-0.125-0.055l-0.121-0.015
		l-0.085-0.138l-0.097-0.167l-0.049-0.22l-0.034-0.247l0.024-0.227l0.015-0.244l0.08-0.268l0.138-0.196l0.071-0.268l0.138-0.158
		l0.165-0.009l0.163-0.062l0.162,0.037l0.121,0.145l0.12,0.099l0.096,0.154l0.134,0.111l0.054-0.169l0.061-0.122l0.174,0.142
		l0.216,0.073l0.098,0.255l0.232,0.018l0.088,0.267l-0.042,0.262l0.02,0.266l0.04,0.25l0.077,0.202l0.162-0.08l0.073-0.191
		l0.004-0.203l0.011-0.201l-0.021-0.203v-0.211l0.06-0.208l0.151-0.156l0.197-0.056l0.195-0.11l0.211-0.04l0.206-0.108l0.167-0.021
		l0.164-0.201l0.08-0.239l-0.007-0.224l0.149-0.276l0.115,0.162l0.269-0.228l0.184-0.158l0.301,0.029l0.288-0.029l0.033-0.334
		l0.342-0.129l0.351-0.085l0.279,0.044l-0.148,0.283l0.291-0.133l0.272-0.054l0.26-0.016l0.196-0.114l0.108-0.098l-0.034-0.192
		l-0.153,0.103l-0.097,0.141l-0.17-0.013l-0.14-0.059l-0.126-0.097l-0.062-0.165l-0.053-0.159l0.1-0.103l0.099-0.071l0.059-0.152
		l-0.162-0.061l-0.176-0.001l-0.171,0.04l-0.159,0.034l-0.143,0.066l-0.127,0.093l-0.118,0.076l-0.136,0.029l0.061-0.049
		l0.099-0.072l0.093-0.056l0.078-0.061l0.091-0.069l0.108-0.051l0.14-0.072l0.156-0.05l0.227-0.087l0.251,0.032l0.254,0.053
		l0.256,0.061l0.285-0.056l0.278-0.29l0.191,0.125l0.159-0.251l-0.145-0.203l-0.115-0.178l-0.145-0.197l-0.174-0.163l-0.05-0.19
		l0.021-0.234l-0.078-0.267l-0.07-0.255l-0.205,0.214l-0.238,0.126l-0.129-0.109l-0.022-0.241l0.005-0.233l-0.119-0.18l-0.163-0.088
		l-0.179-0.125l-0.249,0.056l-0.184,0.387l-0.217,0.216l-0.096,0.431l-0.424,0.211l-0.245,0.413l-0.234,0.22l-0.12-0.34l0.244-0.49
		l-0.274-0.138l-0.121-0.274l-0.12-0.249l-0.061-0.234l0.022-0.279l0.475-0.336l0.385-0.111l0.34-0.111l0.032-0.012l0.02,0.047
		l0.168,0.045l0.159-0.148l0.142-0.113l0.163-0.034l0.271,0.009l0.383-0.382l-0.111-0.127l0.141,0.002l0.216-0.038l0.201-0.076
		l0.156-0.115l0.18-0.062l0.201-0.015l0.191-0.039l0.181-0.05l0.17-0.064l0.04-0.027l0.058-0.016l0.015-0.021l0.037-0.029
		l0.061-0.131l0.034-0.135l-0.114-0.004l0.174-0.098l0.124-0.111l0.075-0.122l-0.009-0.136l0.121-0.105l-0.017-0.125l0.077-0.114
		L82.001,26.894z"/>
	<g>
		<path class="st2" d="M8.67,57.631L8.245,57.54l0.418-0.097c1.505-0.35,2.207-1.159,2.207-2.543
			c0.001-2.016-1.275-3.039-3.789-3.04c0,0-6.922-0.002-7.075-0.002L0,63.742c0.153,0,6.642,0.002,6.642,0.002
			c2.844,0.001,4.544-1.261,4.544-3.374C11.185,58.868,10.246,57.844,8.67,57.631 M4.317,54.269l0.694,0.001
			c0.664,0,1.546,0.121,1.546,1.164c-0.001,0.849-0.514,1.28-1.53,1.279H4.316L4.317,54.269z M5.059,61.331l-0.745-0.001v-2.507
			H5.01c1.17,0,1.762,0.393,1.762,1.166C6.773,60.93,6.26,61.331,5.059,61.331"/>
		<path class="st2" d="M15.137,63.996c1.16,0,1.999-0.483,2.567-1.478l0.159-0.22c0,0,0.103,1.323,0.113,1.451
			c0.137,0,3.639,0.001,3.786,0.001c0-0.153,0.002-8.061,0.002-8.214c-0.147,0-3.729-0.001-3.877-0.001
			c0,0.152-0.002,5.141-0.002,5.141c0,0.643-0.321,1.012-0.879,1.012c-0.524,0-0.812-0.371-0.812-1.046c0,0,0.002-4.955,0.002-5.107
			c-0.148,0-3.731-0.002-3.879-0.002c0,0.153-0.002,5.492-0.002,5.492C12.314,62.966,13.29,63.995,15.137,63.996"/>
		<path class="st2" d="M26.977,64c3.034,0.001,4.508-0.943,4.509-2.887c0-1.612-0.909-2.205-4.051-2.644
			c-1.009-0.142-1.302-0.316-1.301-0.776c0.001-0.469,0.31-0.696,0.944-0.694c0.305,0,0.514,0.065,0.658,0.205
			c0.142,0.142,0.205,0.391,0.214,0.763c0.131,0,3.112,0.002,3.276,0.002c-0.095-1.849-1.435-2.681-4.345-2.682
			c-2.621-0.001-4.125,0.991-4.125,2.721c-0.001,1.435,0.676,2.029,2.785,2.443l1.557,0.303l0.229,0.047
			c0.458,0.089,0.68,0.318,0.68,0.696c0,0.527-0.301,0.792-0.894,0.792c-0.329,0-0.554-0.083-0.729-0.272
			c-0.156-0.18-0.234-0.473-0.257-0.892c-0.129,0-3.319-0.001-3.481-0.001C22.713,63.08,24.088,63.999,26.977,64"/>
		<path class="st2" d="M36.238,63.756c0-0.152,0.004-8.061,0.004-8.214c-0.148,0-3.728-0.001-3.876-0.001
			c0,0.153-0.004,8.061-0.004,8.214C32.509,63.755,36.091,63.756,36.238,63.756"/>
		<path class="st2" d="M42.375,57.605c0.524,0.001,0.813,0.371,0.812,1.045c0,0-0.002,4.958-0.002,5.11
			c0.148,0,3.731,0.001,3.879,0.001c0-0.153,0.002-5.493,0.002-5.493c0-1.973-0.949-2.974-2.823-2.975
			c-1.159,0-1.999,0.483-2.566,1.477l-0.16,0.22c0,0-0.103-1.318-0.113-1.446c-0.136,0-3.637-0.001-3.786-0.001
			c0,0.153-0.002,8.061-0.002,8.214c0.147,0,3.731,0.001,3.878,0.001c0-0.152,0.002-5.141,0.002-5.141
			C41.497,57.972,41.817,57.605,42.375,57.605"/>
		<path class="st2" d="M53.919,61.233c-0.153,0.631-0.636,0.866-1.055,0.866c-0.838,0-1.211-0.451-1.211-1.461v-0.332
			c0,0,5.618,0.002,5.77,0.002c0-0.116,0.001-0.486,0.001-0.486c0.001-3.002-1.551-4.525-4.606-4.525
			c-3.097-0.002-4.876,1.568-4.876,4.305c-0.002,3.833,2.863,4.408,4.572,4.408c2.922,0.001,4.442-0.884,4.787-2.776
			C57.115,61.233,54.02,61.233,53.919,61.233 M51.655,58.502c0-0.81,0.436-1.293,1.163-1.293c0.707,0,1.128,0.484,1.128,1.293v0.196
			h-2.291V58.502z"/>
		<path class="st2" d="M62.297,64.014c3.032,0.002,4.507-0.942,4.508-2.888c0-1.611-0.91-2.203-4.053-2.642
			c-1.008-0.143-1.299-0.317-1.299-0.778c0-0.468,0.309-0.694,0.944-0.694c0.306,0,0.517,0.064,0.659,0.205
			c0.142,0.143,0.202,0.386,0.211,0.764c0.131,0,3.113,0.001,3.279,0.001c-0.094-1.849-1.435-2.681-4.348-2.682
			c-2.621,0-4.125,0.991-4.125,2.721c0,1.435,0.677,2.029,2.786,2.443l1.569,0.305l0.217,0.043c0.458,0.092,0.68,0.32,0.68,0.697
			c0,0.525-0.301,0.794-0.894,0.792c-0.326,0-0.55-0.083-0.727-0.273c-0.154-0.178-0.234-0.472-0.258-0.89
			c-0.127,0-3.318-0.002-3.481-0.002C58.03,63.094,59.405,64.012,62.297,64.014"/>
		<path class="st2" d="M71.757,64.017c3.032,0.001,4.507-0.943,4.507-2.887c0-1.613-0.909-2.206-4.049-2.644
			c-1.009-0.142-1.301-0.315-1.301-0.776c0.001-0.469,0.309-0.696,0.946-0.694c0.306,0,0.514,0.064,0.655,0.205
			c0.142,0.143,0.203,0.392,0.214,0.764c0.131,0,3.111,0,3.276,0c-0.096-1.848-1.437-2.68-4.347-2.681
			c-2.621-0.001-4.125,0.991-4.125,2.721c0,1.435,0.679,2.029,2.79,2.442l1.782,0.35c0.457,0.089,0.681,0.318,0.68,0.694
			c0,0.528-0.301,0.794-0.897,0.794c-0.328,0-0.551-0.083-0.724-0.272c-0.158-0.18-0.235-0.467-0.26-0.892
			c-0.129,0-3.319-0.002-3.482-0.002C67.493,63.098,68.867,64.016,71.757,64.017"/>
		<path class="st2" d="M91.395,51.893c-0.018,0.133-1.01,7.503-1.01,7.503l-0.108,0.551c0,0-1.167-7.922-1.187-8.054
			c-0.131,0-4.67-0.001-4.8-0.001c-0.018,0.131-1.108,7.503-1.108,7.503l-0.119,0.552c0,0-1.058-7.923-1.076-8.058
			c-0.13,0-3.918-0.001-4.1-0.001c0.04,0.186,2.533,11.764,2.56,11.885c0.121,0,4.91,0.001,5.04,0.001
			c0.02-0.132,1.11-7.738,1.11-7.738l0.111-0.544c0,0,1.163,8.151,1.182,8.283c0.131,0,4.915,0.001,5.037,0.001
			c0.026-0.12,2.533-11.695,2.572-11.881C95.315,51.896,91.523,51.893,91.395,51.893"/>
		<path class="st2" d="M99.661,63.78c0-0.152,0.004-8.062,0.004-8.214c-0.147,0-3.728-0.002-3.878-0.002
			c0,0.154-0.002,8.062-0.002,8.214C95.931,63.777,99.515,63.78,99.661,63.78"/>
		<path class="st2" d="M106.269,58.344c0.66,0,1.14,0.1,1.607,0.217c0-0.179,0-2.781,0-2.884c-0.356-0.175-0.686-0.208-0.988-0.208
			c-0.555,0-1.073,0.322-1.591,0.986l-0.118,0.153c0,0-0.102-0.92-0.114-1.04c-0.132,0-3.637-0.002-3.786-0.002
			c0,0.154-0.002,8.062-0.002,8.216c0.147,0.001,3.731,0.001,3.878,0.001c0-0.152,0.002-4.309,0.002-4.309
			C105.157,58.765,105.572,58.344,106.269,58.344"/>
		<path class="st2" d="M114.448,61.255c-0.153,0.631-0.636,0.868-1.054,0.868c-0.838,0-1.21-0.452-1.21-1.464v-0.331
			c0,0,5.617,0.001,5.769,0.002c0-0.116,0.001-0.486,0.001-0.486c0.001-3.002-1.548-4.524-4.607-4.525
			c-3.096-0.001-4.873,1.568-4.874,4.305c0,3.835,2.862,4.408,4.57,4.409c2.922,0,4.442-0.887,4.789-2.778
			C117.644,61.256,114.548,61.255,114.448,61.255 M112.185,58.525c0-0.81,0.432-1.293,1.161-1.293c0.705,0,1.129,0.484,1.129,1.293
			v0.196h-2.29V58.525z"/>
		<path class="st2" d="M120,54.68c0,0.736-0.601,1.337-1.337,1.337c-0.729,0-1.337-0.594-1.337-1.337
			c0-0.757,0.623-1.337,1.337-1.337C119.385,53.343,120,53.923,120,54.68 M117.541,54.676c0,0.623,0.503,1.126,1.118,1.126
			c0.623,0,1.126-0.513,1.126-1.126c0-0.623-0.51-1.118-1.126-1.118C118.05,53.558,117.541,54.047,117.541,54.676 M118.16,53.931
			h0.517c0.176,0,0.523,0,0.523,0.396c0,0.276-0.176,0.333-0.283,0.369c0.206,0.013,0.219,0.148,0.247,0.339
			c0.015,0.12,0.036,0.326,0.078,0.397h-0.318c-0.007-0.071-0.056-0.454-0.056-0.475c-0.021-0.085-0.05-0.127-0.156-0.127h-0.262
			v0.603h-0.29V53.931z M118.443,54.588h0.234c0.191,0,0.227-0.135,0.227-0.212c0-0.206-0.142-0.206-0.219-0.206h-0.241V54.588z"/>
	</g>
	<path class="st3" d="M26.602,68.438l1.564,4.508h-0.972l-0.323-0.974h-1.783l-0.337,0.974h-0.923l1.628-4.508H26.602z
		 M26.627,71.244l-0.623-1.92l-0.667,1.92H26.627z"/>
	<path class="st3" d="M30.305,68.444h1.683c0.262,0,0.767,0,1.11,0.213c0.412,0.261,0.505,0.697,0.505,0.959
		c0,0.169-0.031,0.462-0.261,0.674c-0.032,0.037-0.25,0.236-0.512,0.306v0.012c0.686,0.124,0.954,0.623,0.954,1.097
		c0,0.529-0.311,0.884-0.66,1.059c-0.35,0.181-0.96,0.181-1.135,0.181h-1.683V68.444z M31.228,70.277h0.674
		c0.274,0,0.773,0,0.773-0.581c0-0.561-0.474-0.561-0.792-0.561h-0.654V70.277z M31.228,72.222h0.654c0.443,0,0.942,0,0.942-0.605
		c0-0.642-0.579-0.642-1.041-0.642h-0.555V72.222z"/>
	<path class="st3" d="M35.112,71.605c0,0.206,0,0.843,0.642,0.843c0.231,0,0.462-0.088,0.549-0.437h0.843
		c-0.013,0.149-0.044,0.418-0.3,0.686c-0.23,0.244-0.642,0.369-1.103,0.369c-0.268,0-0.779-0.05-1.11-0.393
		c-0.287-0.299-0.405-0.723-0.405-1.228c0-0.511,0.125-1.122,0.655-1.489c0.242-0.163,0.543-0.262,0.885-0.262
		c0.448,0,0.985,0.174,1.271,0.761c0.212,0.43,0.2,0.892,0.187,1.152H35.112z M36.284,71.025c0-0.143-0.012-0.704-0.549-0.704
		c-0.405,0-0.573,0.337-0.593,0.704H36.284z"/>
	<path class="st3" d="M37.761,70.57c0-0.149-0.025-0.605-0.044-0.785h0.867l0.018,0.604c0.119-0.268,0.325-0.648,1.073-0.61v0.828
		C38.74,70.52,38.684,71,38.684,71.393v1.552h-0.922V70.57z"/>
	<polygon class="st3" points="39.875,68.438 40.791,68.438 40.791,71.094 41.745,69.779 42.786,69.779 41.707,71.151 42.855,72.945 
		41.763,72.945 40.791,71.232 40.791,72.945 39.875,72.945 	"/>
	<path class="st3" d="M43.771,72.035c0.012,0.2,0.137,0.43,0.524,0.43c0.329,0,0.486-0.187,0.486-0.374
		c0-0.143-0.076-0.256-0.437-0.355l-0.573-0.156c-0.256-0.076-0.799-0.231-0.799-0.873c0-0.611,0.562-0.986,1.378-0.986
		c0.649,0,1.172,0.3,1.198,0.93h-0.843c-0.024-0.349-0.305-0.375-0.448-0.375c-0.25,0-0.436,0.119-0.436,0.312
		c0,0.212,0.156,0.256,0.43,0.331l0.567,0.156c0.573,0.156,0.841,0.449,0.841,0.879c0,0.543-0.467,1.085-1.446,1.085
		c-0.405,0-0.791-0.088-1.078-0.387c-0.206-0.218-0.224-0.468-0.231-0.617H43.771z"/>
	<path class="st3" d="M46.072,68.444h0.916v1.783c0.107-0.151,0.337-0.474,0.91-0.474c0.468,0,0.768,0.23,0.917,0.424
		c0.111,0.156,0.206,0.443,0.206,0.854v1.914h-0.917v-1.882c0-0.181,0-0.686-0.517-0.686c-0.262,0-0.593,0.149-0.593,0.642
		l0.007,1.927h-0.93V68.444z"/>
	<path class="st3" d="M49.75,68.444h0.985v0.805H49.75V68.444z M49.782,69.791h0.923v3.155h-0.923V69.791z"/>
	<path class="st3" d="M51.44,70.57c0-0.149-0.025-0.605-0.044-0.785h0.867l0.018,0.604c0.119-0.268,0.325-0.648,1.073-0.61v0.828
		c-0.936-0.087-0.992,0.393-0.992,0.786v1.552H51.44V70.57z"/>
	<path class="st3" d="M54.345,71.605c0,0.206,0,0.843,0.642,0.843c0.231,0,0.462-0.088,0.549-0.437h0.843
		c-0.013,0.149-0.044,0.418-0.3,0.686c-0.23,0.244-0.642,0.369-1.103,0.369c-0.268,0-0.779-0.05-1.11-0.393
		c-0.287-0.299-0.405-0.723-0.405-1.228c0-0.511,0.125-1.122,0.655-1.489c0.242-0.163,0.543-0.262,0.885-0.262
		c0.448,0,0.985,0.174,1.271,0.761c0.212,0.43,0.2,0.892,0.187,1.152H54.345z M55.517,71.025c0-0.143-0.012-0.704-0.549-0.704
		c-0.405,0-0.573,0.337-0.593,0.704H55.517z"/>
	<polygon class="st3" points="58.915,68.438 59.881,68.438 59.881,70.24 61.583,70.24 61.583,68.438 62.562,68.438 62.562,72.945 
		61.595,72.945 61.595,70.969 59.881,70.969 59.881,72.945 58.915,72.945 	"/>
	<path class="st3" d="M65.092,72.945c-0.031-0.192-0.031-0.337-0.031-0.43c-0.349,0.505-0.767,0.505-0.942,0.505
		c-0.454,0-0.66-0.131-0.785-0.249c-0.187-0.187-0.274-0.443-0.274-0.692c0-0.25,0.087-0.712,0.667-0.98
		c0.386-0.174,0.941-0.174,1.247-0.174c0-0.206-0.006-0.305-0.044-0.418c-0.081-0.231-0.325-0.262-0.412-0.262
		c-0.131,0-0.268,0.056-0.349,0.175c-0.069,0.105-0.069,0.205-0.069,0.279h-0.904c0.006-0.168,0.024-0.505,0.355-0.741
		c0.287-0.206,0.655-0.256,0.954-0.256c0.262,0,0.811,0.044,1.122,0.405c0.212,0.256,0.218,0.63,0.218,0.773l0.006,1.266
		c0,0.267,0.02,0.535,0.076,0.797H65.092z M63.958,71.973c0,0.212,0.143,0.448,0.449,0.448c0.168,0,0.305-0.081,0.392-0.18
		c0.163-0.2,0.175-0.442,0.175-0.78C64.382,71.412,63.958,71.599,63.958,71.973"/>
	<path class="st3" d="M68.447,72.902c-0.299,0.081-0.567,0.1-0.718,0.1c-0.928,0-0.928-0.587-0.928-0.849v-1.727h-0.605v-0.611
		h0.605v-0.617l0.916-0.337v0.954h0.748v0.611h-0.748v1.422c0.006,0.287,0.006,0.468,0.419,0.468c0.137,0,0.198-0.007,0.311-0.02
		V72.902z"/>
	<path class="st3" d="M68.971,68.444h0.916v1.783c0.107-0.151,0.337-0.474,0.91-0.474c0.468,0,0.768,0.23,0.917,0.424
		c0.113,0.156,0.206,0.443,0.206,0.854v1.914h-0.917v-1.882c0-0.181,0-0.686-0.517-0.686c-0.262,0-0.592,0.149-0.592,0.642
		l0.006,1.927h-0.93V68.444z"/>
	<path class="st3" d="M74.568,72.945c-0.031-0.192-0.031-0.337-0.031-0.43c-0.349,0.505-0.767,0.505-0.942,0.505
		c-0.454,0-0.66-0.131-0.785-0.249c-0.187-0.187-0.274-0.443-0.274-0.692c0-0.25,0.087-0.712,0.667-0.98
		c0.386-0.174,0.941-0.174,1.247-0.174c0-0.206-0.006-0.305-0.044-0.418c-0.081-0.231-0.325-0.262-0.412-0.262
		c-0.131,0-0.268,0.056-0.349,0.175c-0.069,0.105-0.069,0.205-0.069,0.279h-0.904c0.006-0.168,0.024-0.505,0.355-0.741
		c0.287-0.206,0.655-0.256,0.954-0.256c0.262,0,0.811,0.044,1.122,0.405c0.212,0.256,0.218,0.63,0.218,0.773l0.007,1.266
		c0,0.267,0.018,0.535,0.075,0.797H74.568z M73.434,71.973c0,0.212,0.143,0.448,0.449,0.448c0.168,0,0.305-0.081,0.392-0.18
		c0.163-0.2,0.175-0.442,0.175-0.78C73.858,71.412,73.434,71.599,73.434,71.973"/>
	<polygon class="st3" points="76.552,69.797 77.131,72.172 77.798,69.797 78.815,69.797 79.475,72.172 80.092,69.797 81.01,69.797 
		79.931,72.945 78.928,72.945 78.278,70.614 77.618,72.945 76.602,72.945 75.573,69.797 	"/>
	<path class="st3" d="M83.053,72.945c-0.031-0.192-0.031-0.337-0.031-0.43c-0.349,0.505-0.767,0.505-0.942,0.505
		c-0.454,0-0.66-0.131-0.785-0.249c-0.187-0.187-0.274-0.443-0.274-0.692c0-0.25,0.087-0.712,0.667-0.98
		c0.386-0.174,0.942-0.174,1.247-0.174c0-0.206-0.006-0.305-0.044-0.418c-0.081-0.231-0.325-0.262-0.412-0.262
		c-0.131,0-0.268,0.056-0.349,0.175c-0.069,0.105-0.069,0.205-0.069,0.279h-0.904c0.006-0.168,0.025-0.505,0.355-0.741
		c0.287-0.206,0.655-0.256,0.954-0.256c0.262,0,0.811,0.044,1.122,0.405c0.212,0.256,0.218,0.63,0.218,0.773l0.007,1.266
		c0,0.267,0.018,0.535,0.075,0.797H83.053z M81.919,71.973c0,0.212,0.143,0.448,0.449,0.448c0.168,0,0.305-0.081,0.393-0.18
		c0.162-0.2,0.174-0.442,0.174-0.78C82.343,71.412,81.919,71.599,81.919,71.973"/>
	<polygon class="st3" points="85.112,69.797 85.804,71.98 86.508,69.797 87.425,69.797 86.233,72.89 85.854,74.143 84.924,74.143 
		85.323,72.958 84.115,69.797 	"/>
	<path class="st3" d="M92.294,69.909c-0.018-0.156-0.075-0.792-0.73-0.792c-0.716,0-1.015,0.748-1.015,1.678
		c0,0.268,0,1.546,0.941,1.546c0.405,0,0.792-0.255,0.811-0.854h1.017c-0.02,0.267-0.044,0.686-0.405,1.059
		c-0.399,0.412-0.904,0.505-1.315,0.505c-1.553,0-2.058-1.146-2.058-2.262c0-1.428,0.797-2.376,2.064-2.376
		c0.985,0,1.677,0.599,1.677,1.497H92.294z"/>
	<path class="st3" d="M95.299,69.722c1.14,0,1.633,0.773,1.633,1.652c0,0.885-0.511,1.683-1.652,1.683
		c-0.898,0-1.608-0.555-1.608-1.658C93.671,70.638,94.058,69.722,95.299,69.722 M95.311,72.416c0.405,0,0.68-0.242,0.68-1.079
		c0-0.418-0.081-0.997-0.692-0.997c-0.674,0-0.68,0.779-0.68,1.066C94.619,72.111,94.857,72.416,95.311,72.416"/>
	<path class="st3" d="M97.568,70.389c0-0.2-0.012-0.393-0.031-0.592h0.892l0.031,0.404c0.099-0.137,0.343-0.474,0.972-0.474
		c0.723,0,0.93,0.443,0.992,0.593c0.261-0.505,0.685-0.585,1.009-0.585c0.636,0,0.892,0.38,0.96,0.505
		c0.169,0.274,0.156,0.654,0.156,0.928v1.777h-0.928v-1.852c0-0.337-0.05-0.71-0.53-0.71c-0.555,0-0.567,0.518-0.567,0.985v1.577
		h-0.93v-1.87c0-0.242-0.005-0.692-0.517-0.692c-0.581,0-0.581,0.498-0.581,0.71v1.852h-0.928V70.389z"/>
	<path class="st3" d="M104.226,69.797l0.025,0.448c0.288-0.505,0.811-0.511,0.961-0.511c0.816,0,1.308,0.611,1.308,1.571
		c0,0.89-0.46,1.683-1.37,1.683c-0.568,0-0.799-0.299-0.879-0.405v1.571h-0.942v-4.358H104.226z M105.585,71.343
		c0-0.374-0.093-1.017-0.636-1.017c-0.3,0-0.724,0.225-0.724,1.073c0,0.187,0.006,0.986,0.686,0.986
		C105.349,72.385,105.585,71.966,105.585,71.343"/>
	<path class="st3" d="M108.982,72.945c-0.031-0.192-0.031-0.337-0.031-0.43c-0.349,0.505-0.767,0.505-0.942,0.505
		c-0.454,0-0.66-0.131-0.785-0.249c-0.187-0.187-0.274-0.443-0.274-0.692c0-0.25,0.087-0.712,0.667-0.98
		c0.386-0.174,0.941-0.174,1.247-0.174c0-0.206-0.007-0.305-0.044-0.418c-0.081-0.231-0.325-0.262-0.412-0.262
		c-0.131,0-0.268,0.056-0.349,0.175c-0.069,0.105-0.069,0.205-0.069,0.279h-0.904c0.006-0.168,0.025-0.505,0.355-0.741
		c0.287-0.206,0.655-0.256,0.954-0.256c0.262,0,0.811,0.044,1.122,0.405c0.212,0.256,0.218,0.63,0.218,0.773l0.006,1.266
		c0,0.267,0.02,0.535,0.076,0.797H108.982z M107.848,71.973c0,0.212,0.143,0.448,0.448,0.448c0.169,0,0.306-0.081,0.393-0.18
		c0.163-0.2,0.175-0.442,0.175-0.78C108.272,71.412,107.848,71.599,107.848,71.973"/>
	<path class="st3" d="M110.498,70.358c0-0.012,0-0.355-0.018-0.573h0.885l0.025,0.473c0.087-0.143,0.337-0.549,1.023-0.549
		c0.617,0,0.879,0.375,0.96,0.593c0.069,0.194,0.087,0.355,0.087,0.942v1.701h-0.942v-1.957c0-0.131,0-0.243-0.049-0.343
		c-0.069-0.137-0.213-0.268-0.449-0.268c-0.2,0-0.381,0.093-0.48,0.244c-0.056,0.081-0.113,0.236-0.113,0.48v1.844h-0.928V70.358z"
		/>
	<polygon class="st3" points="114.65,69.797 115.342,71.98 116.046,69.797 116.964,69.797 115.772,72.89 115.392,74.143 
		114.463,74.143 114.862,72.958 113.653,69.797 	"/>
</g>
</svg>
