<?xml version="1.0" encoding="utf-8"?>
<!-- Generator: Adobe Illustrator 21.1.0, SVG Export Plug-In . SVG Version: 6.00 Build 0)  -->
<svg version="1.1" id="Layer_1" xmlns="http://www.w3.org/2000/svg" xmlns:xlink="http://www.w3.org/1999/xlink" x="0px" y="0px"
	 viewBox="0 0 100 100" style="enable-background:new 0 0 100 100;" xml:space="preserve">
<style type="text/css">
	.st0{opacity:0.35;}
	.st1{fill:#8B8B8B;}
	.st2{fill:#545454;}
	.st3{fill:#6E6E6E;}
	.st4{opacity:0.4;}
	.st5{fill:#ABABAB;}
	.st6{fill:#393939;}
	.st7{fill:#1F1F1F;}
	.st8{fill:#6F6F6F;}
	.st9{fill:#5A5A5A;}
	.st10{fill:#9D9D9D;}
	.st11{fill:#3E3E3E;}
	.st12{fill-rule:evenodd;clip-rule:evenodd;fill:#515151;}
	.st13{fill-rule:evenodd;clip-rule:evenodd;fill:#050505;}
</style>
<g class="st0">
	<path class="st12" d="M47.571,38.052V57.21c0,0.867-0.473,1.34-0.946,1.498c-0.552,0.158-1.104-0.079-1.498-0.631
		c-0.079-0.158-7.963-12.693-9.855-15.847c-0.237-0.237-0.473-0.394-0.71-0.315c-0.315,0.079-0.473,0.394-0.473,0.788V57.21
		c0,0.867-0.473,1.34-0.867,1.498c-0.552,0.158-1.183-0.079-1.498-0.631c-0.079-0.158-7.963-12.693-9.855-15.847
		c-0.236-0.237-0.473-0.394-0.788-0.315c-0.237,0.079-0.394,0.394-0.394,0.788v14.428c0,0.394-0.158,0.788-0.473,1.104
		c-0.315,0.315-0.71,0.473-1.104,0.473h-7.017c-6.228,0-9.145-4.573-9.145-8.83c0-4.336,3.075-8.83,8.909-8.83h3.311v-2.996h-2.838
		c-16.556,0-16.399,23.652,0.236,23.652h6.544c2.759,0,4.573-1.656,4.573-4.731v-5.992l5.125,8.436
		c2.444,4.021,8.357,3.233,8.278-1.813v-6.623l5.125,8.436c2.444,4.021,8.357,3.233,8.357-1.813V38.052H47.571z"/>
	<path class="st12" d="M12.014,44.753h3.154v-2.917h-3.311c-5.361,0-8.121,4.021-8.121,8.042c0,3.863,2.602,8.042,8.357,8.042h7.017
		c0.473,0,0.788-0.394,0.788-0.788V42.703c0-0.71,0.394-1.34,1.025-1.498c0.552-0.158,1.183,0.079,1.577,0.631
		c1.892,3.154,9.776,15.689,9.855,15.847c0.158,0.236,0.394,0.315,0.631,0.315c0.237-0.079,0.394-0.394,0.394-0.788V42.703
		c0-0.71,0.315-1.34,0.946-1.498c0.552-0.158,1.183,0.079,1.577,0.631c1.971,3.154,9.776,15.689,9.855,15.847
		c0.158,0.236,0.394,0.315,0.631,0.315c0.236-0.079,0.394-0.394,0.394-0.788V38.052h-2.996v11.195c0,0-1.735-3.075-4.809-8.278
		c-2.996-5.125-8.594-2.996-8.594,1.419v6.859c0,0-1.735-3.075-4.809-8.278c-2.996-5.125-8.672-2.996-8.672,1.419v11.826
		c0,0.394-0.315,0.788-0.71,0.788h-3.706C4.445,55.002,5.155,44.753,12.014,44.753z"/>
	<path class="st13" d="M67.518,54.135c-0.237-2.996-2.759-4.415-5.519-4.415c-3.784,0-5.913,2.681-5.913,6.307
		c0,3.469,2.365,5.992,5.913,5.992c2.996,0,5.203-1.735,5.598-4.809h-3.075c-0.237,1.419-1.104,2.365-2.602,2.365
		c-1.971,0-2.602-1.971-2.602-3.627c0-1.735,0.631-3.784,2.681-3.784c1.34,0,2.208,0.71,2.365,1.971H67.518L67.518,54.135z"/>
	<path class="st13" d="M68.779,55.87c0,3.705,2.365,6.15,6.071,6.15c3.627,0,5.992-2.444,5.992-6.15c0-3.706-2.365-6.15-5.992-6.15
		C71.144,49.72,68.779,52.164,68.779,55.87L68.779,55.87z M72.012,55.87c0-1.892,0.631-3.706,2.838-3.706
		c2.129,0,2.838,1.813,2.838,3.706c0,1.892-0.71,3.705-2.838,3.705C72.642,59.575,72.012,57.762,72.012,55.87L72.012,55.87z"/>
	<path class="st13" d="M82.34,61.704h3.075v-6.78c0-2.286,1.577-2.681,2.208-2.681c1.971,0,1.892,1.577,1.892,2.917v6.544h3.233
		v-6.465c0-1.498,0.315-2.996,2.129-2.996s1.971,1.261,1.971,2.838v6.623H100v-7.805c0-2.996-1.735-4.179-4.257-4.179
		c-1.577,0-2.838,0.946-3.469,1.971c-0.631-1.419-1.971-1.971-3.39-1.971c-1.498,0-2.759,0.71-3.548,1.892h-0.079v-1.577H82.34
		V61.704L82.34,61.704z"/>
	<path class="st13" d="M51.592,60.048c0-1.025,0.867-1.892,1.971-1.892c1.104,0,1.971,0.867,1.971,1.892
		c0,1.104-0.867,1.971-1.971,1.971C52.459,62.019,51.592,61.152,51.592,60.048L51.592,60.048z"/>
</g>
</svg>
