<?xml version="1.0" encoding="utf-8"?>
<!-- Generator: Adobe Illustrator 21.1.0, SVG Export Plug-In . SVG Version: 6.00 Build 0)  -->
<svg version="1.1" id="Layer_1" xmlns="http://www.w3.org/2000/svg" xmlns:xlink="http://www.w3.org/1999/xlink" x="0px" y="0px"
	 viewBox="0 0 100 100" style="enable-background:new 0 0 100 100;" xml:space="preserve">
<style type="text/css">
	.st0{opacity:0.35;}
	.st1{fill:#8B8B8B;}
	.st2{fill:#545454;}
	.st3{fill:#6E6E6E;}
	.st4{opacity:0.4;}
	.st5{fill:#ABABAB;}
	.st6{fill:#393939;}
	.st7{fill:#1F1F1F;}
	.st8{fill:#6F6F6F;}
	.st9{fill:#5A5A5A;}
	.st10{fill:#9D9D9D;}
	.st11{fill:#3E3E3E;}
	.st12{fill-rule:evenodd;clip-rule:evenodd;fill:#515151;}
	.st13{fill-rule:evenodd;clip-rule:evenodd;fill:#050505;}
</style>
<g class="st0">
	<polygon class="st7" points="0,59.877 3.816,59.877 3.816,50.7 10.694,50.7 10.694,48.455 3.816,48.455 3.816,42.104 
		11.509,42.104 11.509,39.832 0,39.832 	"/>
	<rect x="13.078" y="44.173" class="st7" width="3.672" height="15.705"/>
	<path class="st7" d="M25.628,43.765c-2.682,0-5.187,0.495-6.79,1.136v14.976h3.642V46.358c0.699-0.263,1.808-0.467,2.943-0.467
		c2.098,0,3.962,0.758,3.962,2.769v11.217h3.671V48.601C33.058,45.163,30.087,43.765,25.628,43.765z"/>
	<path class="st8" d="M42.48,43.765c-4.72,0-7.839,3.03-7.839,8.216c0,5.392,3.35,8.305,8.565,8.305
		c2.739,0,4.808-0.583,6.004-1.137l-0.875-2.128c-0.961,0.438-2.682,0.904-4.808,0.904c-3.148,0-5.011-1.574-5.362-4.691
		l11.683-1.429C49.849,46.532,47.256,43.765,42.48,43.765z M37.935,51.544c-0.089-3.905,1.893-5.74,4.398-5.74
		c2.418,0,3.992,1.427,3.992,4.662L37.935,51.544z"/>
	<polygon class="st8" points="65.441,44.172 61.857,44.172 58.158,49.504 58.101,49.504 54.517,44.172 50.525,44.172 56.002,51.689 
		49.883,59.877 53.757,59.877 57.779,53.905 57.838,53.905 61.829,59.877 66.025,59.877 59.847,51.514 	"/>
	<path class="st8" d="M71.99,39.714l-3.641,0.933v3.526h-2.391v2.038h2.391v9.76c0,2.129,1.367,4.256,4.951,4.256
		c0.935,0,1.664-0.175,2.014-0.322v-2.068c-0.35,0.087-0.644,0.145-0.992,0.145c-1.545,0-2.332-0.962-2.332-2.186v-9.586h3.324
		v-2.038H71.99V39.714z"/>
	<path class="st8" d="M84.622,43.765c-3.351,0-5.421,0.408-7.23,1.136v14.977h3.646V46.386c1.021-0.494,3.087-0.554,4.548-0.145
		l0.784-2.389C85.991,43.823,85.235,43.765,84.622,43.765z"/>
	<path class="st8" d="M93.3,43.765c-2.709,0-4.953,0.669-6.148,1.136l0.846,1.923c1.076-0.465,2.97-0.903,4.632-0.903
		c2.332,0,3.933,0.64,3.933,2.795v0.906c-5.71,0.465-10.519,1.601-10.519,5.825c0,3.002,2.361,4.838,7.372,4.838
		c2.827,0,5.128-0.467,6.585-1.136v-9.935C100,45.192,97.086,43.765,93.3,43.765z M96.563,57.865
		c-0.642,0.292-1.661,0.525-2.854,0.525c-2.566,0-4.197-0.903-4.197-3.027c0-3.033,2.827-3.758,7.051-4.169V57.865z"/>
	<rect x="13.078" y="39.831" class="st7" width="3.672" height="2.258"/>
</g>
</svg>
